<?xml version="1.0" encoding="utf-8"?>
<!-- Generator: Adobe Illustrator 15.0.0, SVG Export Plug-In . SVG Version: 6.00 Build 0)  -->
<!DOCTYPE svg PUBLIC "-//W3C//DTD SVG 1.1//EN" "http://www.w3.org/Graphics/SVG/1.1/DTD/svg11.dtd">
<svg version="1.1" id="レイヤー_1" xmlns="http://www.w3.org/2000/svg" xmlns:xlink="http://www.w3.org/1999/xlink" x="0px"
	 y="0px" width="94.917px" height="148.793px" viewBox="0 0 94.917 148.793" enable-background="new 0 0 94.917 148.793"
	 xml:space="preserve">
<g>
	
		<path fill="#FFFFFF" stroke="#E94B24" stroke-width="1.0683" stroke-linecap="round" stroke-linejoin="round" stroke-miterlimit="10" d="
		M50.079,23.181c0,0,4.63-5.696,15.349-8.798c8.506-2.461,11.668-5.833,13.301-10.267c1.634-4.434,1.168-3.5,1.168-3.5
		s0.699,2.333,2.332,4.433c1.634,2.101,3.468,8.004,2.579,12.892c0,0-1.629,5.626-7.996,5.183c-4.938-0.344-8.583-0.107-9.75,1.526
		c-1.166,1.634,0.213,2.546,4.199,2.8c8.809,0.561,17.64,6.584,20.508,11.667c2.614,4.634,2.344,6.026,2.614,9.348
		c0,0-9.82-7.947-19.154-9.347c-9.333-1.4-13.533-1.634-17.267-3.501c0,0-8.881,3.179-12.381,12.512
		c-3.501,9.334-3.324,13.826,0.609,19.905c5.876,9.081,13.076,17.151,16.812,21.352c0,0,12.075,10.586,14.544,25.107
		c0.926,5.451,1.78,11.038,2.509,15.079c0.147,0.817-0.959,1.083-0.948,1.804c0.018,1.289-0.176,2.313-0.239,3.342
		c-0.12,1.92-1.337,2.633-3.672,2.633c-2.333,0-4.61,0.245-5.544,1.178c-0.935,0.934-4.017,2.622-6.583,1.455
		c-2.567-1.167-1.492-2.142-2.426-2.842c0,0-8.249-6.225-10.593-8.783c-5.876-6.409-7.353-9.022-14.073-17.983
		c0,0-5.566-9.155-8.401-16.243c-5.601-14.002-7.538-20.056-4.849-37.155c0,0,1.695-6.336,5.996-13.113
		c4.2-6.617,10.91-13.633,19.09-17.327L50.079,23.181z"/>
	<path fill="#FFFFFF" stroke="#E94B24" stroke-width="1.0683" stroke-miterlimit="10" d="M30.854,101.451
		c0,0-5.208-3.873-14.179-2.852c-2.933,0.334-7.054,3.386-8.522,4.854c-4.14,4.14-4.007,8.546-3.94,12.594
		c0,0,8.564,0.02,18.161-2.492c5.943-1.556,12.086-5.562,12.086-5.562L30.854,101.451z"/>
	<g>
		<path fill="#E94B24" d="M59.972,127.583c-1.013,1.593-3.062,1.616-4.885,0.461c-1.82-1.154-2.498-3.487-1.446-5.056
			c0.72-1.07,3.137-1.686,4.958-0.533C60.419,123.612,60.98,125.99,59.972,127.583z"/>
		<path fill="#FFFFFF" d="M59.26,126.875c-0.695,1.097-2.349,1.425-3.771,0.523c-1.424-0.902-1.955-2.338-1.259-3.432
			c0.695-1.098,2.267-1.716,3.689-0.814C59.343,124.056,59.956,125.777,59.26,126.875z"/>
		<path fill="#E94B24" d="M58.376,126.896c-1.104,0.829-2.887,0.502-3.467-0.638c-0.297-0.584-0.069-1.261,0.28-1.812
			c0.349-0.55,1.568-0.952,2.866-0.093C58.855,124.882,59.078,126.369,58.376,126.896z"/>
	</g>
	
		<path fill="none" stroke="#E94B24" stroke-width="0.5342" stroke-linecap="round" stroke-linejoin="bevel" stroke-miterlimit="10" d="
		M75.374,137.271c0,0-1.79-0.655-4.01,0.302c-1.73,0.745-2.307,2.048-2.307,2.048s2.598-0.061,3.931-0.561
		C74.323,138.56,75.374,137.271,75.374,137.271z"/>
	<path fill="#E94B24" d="M74.548,137.271c0,0,1.851-0.716,2.688-0.151c0,0-0.166,2.167-2.334,2.334
		c-2.167,0.167-3.001,0.833-3.501,1.167c-0.5,0.333-4.128,1.302-4.798,0.231c0,0-0.357-0.775,1.074-1.133
		c0.723-0.181,1.193-0.06,1.193-0.06S73.299,139.679,74.548,137.271z"/>
	<g opacity="0.65">
		<path fill="none" stroke="#E94B24" stroke-width="0.5342" stroke-miterlimit="10" d="M18.969,98.914
			c-0.668,1.201,5.659,6.164,13.124,6.164"/>
		<path fill="none" stroke="#E94B24" stroke-width="0.5342" stroke-miterlimit="10" d="M32.093,105.078
			c-4.006,0.802-8.185-0.065-10.587-0.823c-9.457-2.979-8.413-4.272-8.413-4.272"/>
		<path fill="none" stroke="#E94B24" stroke-width="0.5342" stroke-miterlimit="10" d="M32.699,106.078
			c-21.609,0.581-24.013-3.292-24.013-3.292"/>
		<path fill="none" stroke="#E94B24" stroke-width="0.5342" stroke-miterlimit="10" d="M7.084,105.857c0,0,2.403,2.404,15.09,2.404
			c2.671,0,7.32-0.581,10.525-2.184"/>
		<path fill="none" stroke="#E94B24" stroke-width="0.5342" stroke-miterlimit="10" d="M5.348,109.329c0,0,6.357,0.936,12.553,0.936
			c4.985,0,13.002-1.887,15.624-3.739"/>
		<path fill="none" stroke="#E94B24" stroke-width="0.5342" stroke-miterlimit="10" d="M4.947,112.935c0,0,2.929,1.154,10.55,0
			c8.812-1.336,14.333-3.723,18.16-5.876"/>
	</g>
	<g>
		<path fill="#FFFFFF" stroke="#E94B24" stroke-width="1.0683" stroke-miterlimit="10" d="M21.656,60.396c0,0-2.179-0.01-2.45-5.31
			c0,0-0.805-4.95-3.781-7.65c-1.424-1.292-10.188-4.318-13.189-3.28c-2.998,1.038-1.792,4.673,1.734,9.884
			c6.553,9.682,17.321,14.277,17.321,14.277L21.656,60.396z"/>
		<g opacity="0.65">
			<path fill="none" stroke="#E94B24" stroke-width="0.5342" stroke-miterlimit="10" d="M3.552,48.154
				c1.436,2.89,8.096,14.03,15.987,18.253"/>
			<path fill="none" stroke="#E94B24" stroke-width="0.5342" stroke-miterlimit="10" d="M6.692,46.264
				c0,0,4.912,14.676,13.147,18.75"/>
			<path fill="none" stroke="#E94B24" stroke-width="0.5342" stroke-miterlimit="10" d="M10.264,46.497
				c0,0,2.655,11.908,9.378,17.28"/>
			<path fill="none" stroke="#E94B24" stroke-width="0.5342" stroke-miterlimit="10" d="M13.385,48.103
				c0,0,2.599,10.616,6.732,14.215"/>
		</g>
	</g>
	<g opacity="0.65">
		<path fill="none" stroke="#E94B24" stroke-width="0.5342" stroke-miterlimit="10" d="M79.875,3.599c0,0,1.436,6.938-12.132,11.859
			c-6.907,2.506-13.354,6.41-16.024,8.813"/>
		<path fill="none" stroke="#E94B24" stroke-width="0.5342" stroke-miterlimit="10" d="M53.083,25.128
			c10.827-7.308,9.77-5.762,17.463-8.612c7.212-2.671,11.939-9.539,11.939-9.539"/>
		<path fill="none" stroke="#E94B24" stroke-width="0.5342" stroke-miterlimit="10" d="M54.758,25.846c0,0,5.296-2.915,9.568-4.784
			c4.273-1.87,13.53-3.757,19.406-9.633"/>
		<path fill="none" stroke="#E94B24" stroke-width="0.5342" stroke-miterlimit="10" d="M56.193,27.043c0,0,7.544-5.176,14.221-6.244
			c6.677-1.068,11.245-4.15,13.318-5.631"/>
		<path fill="none" stroke="#E94B24" stroke-width="0.5342" stroke-miterlimit="10" d="M57.628,28.239c0,0,2.632-1.914,6.698-2.393"
			/>
		<path fill="none" stroke="#E94B24" stroke-width="0.5342" stroke-miterlimit="10" d="M58.346,29.434c0,0,4-1.913,6.938-1.913"/>
		<path fill="none" stroke="#E94B24" stroke-width="0.5342" stroke-miterlimit="10" d="M73.619,29.345
			c-7.479-1.335-15.273,0.807-15.273,0.807"/>
		<path fill="none" stroke="#E94B24" stroke-width="0.5342" stroke-miterlimit="10" d="M59.063,32.545c0,0,5.65-0.51,13.157-0.24
			c8.662,0.312,14.717,2.982,14.717,2.982"/>
		<path fill="none" stroke="#E94B24" stroke-width="0.5342" stroke-miterlimit="10" d="M59.781,33.5c0,0,8.494,0.426,16.241,1.454
			C83.91,36,91.744,40.452,91.744,40.452"/>
		<path fill="none" stroke="#E94B24" stroke-width="0.5342" stroke-miterlimit="10" d="M60.02,34.936c0,0,10.402,0.677,14.832,1.676
			c8.347,1.881,12.066,3.209,18.354,8.317"/>
		<path fill="none" stroke="#E94B24" stroke-width="0.5342" stroke-miterlimit="10" d="M58.824,31.349c0,0,7.366-0.794,12.438-0.957
			c8.375-0.268,11.936,1.335,11.936,1.335"/>
	</g>
	<path fill="none" stroke="#E94B24" stroke-width="0.9629" stroke-miterlimit="10" d="M60.921,137.563c0,0,5.346-0.176,7.995-2.102
		c0,0,2.092-1.926,5.299-1.812c3.206,0.112,4.601,0,4.601,0"/>
	<g>
		<path fill="#FFFFFF" stroke="#E94B24" stroke-width="1.0683" stroke-miterlimit="10" d="M44.77,65.596
			c1.815-1.137,3.196-1.944,4.89-3.385c6.139-5.225,5.853-11.003,5.03-11.946c-1.331-1.531-5.012-0.662-7.017,0.55
			c-3.653,2.208-3.921,4.66-4.459,8.507C43.214,59.322,43.145,61.737,44.77,65.596z"/>
		<path opacity="0.65" fill="none" stroke="#E94B24" stroke-width="0.5342" stroke-miterlimit="10" d="M49.107,50.703
			c0,0-4.269,4.796-5.534,10.485"/>
		
			<path opacity="0.65" fill="none" stroke="#E94B24" stroke-width="0.5342" stroke-linecap="round" stroke-linejoin="bevel" stroke-miterlimit="10" d="
			M52.657,51.021c0,0-6.785,4.803-8.843,11.483"/>
		
			<path opacity="0.65" fill="none" stroke="#E94B24" stroke-width="0.5342" stroke-linecap="round" stroke-linejoin="bevel" stroke-miterlimit="10" d="
			M54.675,52.023c0,0-7.865,6.089-10.275,10.884"/>
		
			<path opacity="0.65" fill="none" stroke="#E94B24" stroke-width="0.5342" stroke-linecap="round" stroke-linejoin="bevel" stroke-miterlimit="10" d="
			M54.083,56.255c0,0-5.633,2.986-10.025,7.565"/>
	</g>
	
		<path fill="none" stroke="#E94B24" stroke-width="1.0683" stroke-linecap="round" stroke-linejoin="round" stroke-miterlimit="10" d="
		M56.716,134.613c-3.383,2.849-0.662,5.181-0.04,7.122c0.865,2.695-1.538,4.401,0.761,6.524c-0.452-2.277,2.142-4.046,1.112-6.703
		c-0.437-1.123-1.713-1.733-1.308-3.203c0.235-0.852,1.587-1.845,1.967-2.138L56.716,134.613z"/>
	
		<path fill="none" stroke="#E94B24" stroke-width="1.0683" stroke-linecap="round" stroke-linejoin="round" stroke-miterlimit="10" d="
		M87.875,138.708c-2.179-0.701-4.934-1.311-5.164-4.095c-0.134-1.613-0.344-4.759-2.849-4.273l-0.756,1.036
		c0,0,1.823,0.388,2.002,3.059s1.083,4.044,3.027,4.273C87.162,139.064,87.875,138.708,87.875,138.708z"/>
	<g>
		
			<path fill="#FFFFFF" stroke="#E94B24" stroke-width="1.0683" stroke-linecap="round" stroke-linejoin="bevel" stroke-miterlimit="10" d="
			M64.253,90.678c-0.409-0.438-0.164-2.985,0.716-5.422c1.413-3.904,4.288-6.385,5.667-7.121c4.273-2.281,8.025-2.792,10.467-2.857
			c4.329-0.117,7.628,1.294,7.709,1.433c-2.373,0.436-1.583,6.582-10.979,14.291c-4.87,3.996-7.765,3.635-10.126,4.348
			C66.067,93.438,65.086,91.565,64.253,90.678z"/>
		<g>
			
				<path opacity="0.65" fill="none" stroke="#E94B24" stroke-width="0.5342" stroke-linecap="round" stroke-linejoin="bevel" stroke-miterlimit="10" d="
				M71.748,78.336c-3.77,9.317-4.273,8.146-6.677,11.752"/>
			
				<path opacity="0.65" fill="none" stroke="#E94B24" stroke-width="0.5342" stroke-linecap="round" stroke-linejoin="bevel" stroke-miterlimit="10" d="
				M66.407,91.29c5.281-1.781,8.146-14.021,8.146-14.021"/>
			
				<path opacity="0.65" fill="none" stroke="#E94B24" stroke-width="0.5342" stroke-linecap="round" stroke-linejoin="bevel" stroke-miterlimit="10" d="
				M78.292,75.933c0,0-1.092,5.378-3.072,8.681c-1.389,2.322-3.338,5.207-8.012,8.012"/>
			
				<path opacity="0.65" fill="none" stroke="#E94B24" stroke-width="0.5342" stroke-linecap="round" stroke-linejoin="bevel" stroke-miterlimit="10" d="
				M82.698,76.334c-1.202,6.009-8.598,15.484-15.09,16.825"/>
		</g>
		
			<path opacity="0.65" fill="none" stroke="#E94B24" stroke-width="0.5342" stroke-linecap="round" stroke-linejoin="bevel" stroke-miterlimit="10" d="
			M85.77,76.2c-1.202,6.01-9.214,16.025-17.627,17.36"/>
	</g>
	<path fill="#E94B24" d="M66.739,93.985c-0.136-0.689-2.859-2.346-3.771-2.797c-0.936-0.463-1.4-1.285-2.685-1.219
		c-1.252,0.066-1.409,2.064-2.275,2.088c-2.46,0.065-3.093-2.397-5.581-2.799c-2.753-0.445-5.776,2.014-7.323,3.78
		c-0.532,0.609-0.408,2.823-1.008,3.749c-0.966,1.493-2.652,1.894-3.304,3.719c-0.723,2.021-1.435,5.572-0.992,7.221
		c0.433,1.61,0.415,7.296,1.546,7.525c1.571,1.18,6.113-4.15,6.679-4.321c3.928-1.179,4.109-0.077,5.313,0.172
		c-1.847,4.474,3.739,2.878,5.525,5.304c1.337,1.817,3.985,2.937,4.876,4.739c1.05,2.12,0.254,4.82,0.686,5.331
		c1.376,1.628,0.657,2.217,2.064,3.312c3.535,2.75,5.107,0,6.679-0.787c1.965-1.964,0.067-2.773,1.179-3.928
		c1.278-1.325,3.026-1.637,3.556-3.817c0.337-1.384,0.022-6.789-2.826-14.623c-1.027-2.826-4.312-7.763-7.475-12.075"/>
	<path fill="#E94B24" d="M46.209,70.692c-2.849-3.205-2.19-7.409-10.173-9.32c-5.24,2.681-8.247,5.783-10.073,8.449
		c-0.93,1.356-2.491,4.313-2.059,5.928c1.032,3.845,2.665,0.363,4.237,2.351c3.386,4.276-0.098,8.257,7.005,5.341
		c3.829-1.572,10.794-7.213,15.336-6.338"/>
	<path fill="#E94B24" d="M42.983,61.006c-1.585-1.219-2.316-0.61-2.462,0.211c3.816,4.892,5.264,10.391,7.904,15.982
		c0.852,0.21,3.337-0.354,4.185-0.595c-1.705-1.34-6.226-7.912-8.165-12.187C43.291,62.11,43.951,63.112,42.983,61.006"/>
	<path fill="#E94B24" d="M55.111,36.862c-2.56-1.854-11.771-3.593-14.904-3.152c-1.336,3.404-4.543,4.442-3.157,8.039
		c1.001,2.602,4.736,7.182,7.989,7.3c1.366-4.749,5.322-8.635,9.581-12.065"/>
</g>
</svg>
