<?xml version="1.0" encoding="utf-8"?>
<!-- Generator: Adobe Illustrator 15.0.0, SVG Export Plug-In . SVG Version: 6.00 Build 0)  -->
<!DOCTYPE svg PUBLIC "-//W3C//DTD SVG 1.1//EN" "http://www.w3.org/Graphics/SVG/1.1/DTD/svg11.dtd">
<svg version="1.1" id="レイヤー_1" xmlns="http://www.w3.org/2000/svg" xmlns:xlink="http://www.w3.org/1999/xlink" x="0px"
	 y="0px" width="353.813px" height="181.44px" viewBox="0 0 353.813 181.44" enable-background="new 0 0 353.813 181.44"
	 xml:space="preserve">
<path opacity="0.75" fill="#EFEFEF" d="M215.905,173.756c-9.987-0.769-14.981-3.841-14.981-3.841
	c-12.293-9.219-3.073-17.671-3.073-17.671c13.829-8.451,23.433-6.53,41.487-6.53c27.275,0,23.817,8.451,23.817,8.451
	c-0.384,4.993-17.286,5.762-17.286,5.762c-16.52,0.384-21.896-3.841-21.896-3.841c-0.769-4.226,9.22-3.073,9.22-3.073l6.529,2.305
	c0,0,4.227-3.457-3.841-5.763c-8.067-2.304-17.287-0.384-17.287,4.993c0,5.378,5.763,8.453,11.909,9.604
	c6.146,1.153,18.055,1.153,18.055,1.153c22.28,0,20.36-12.678,20.36-12.678c-1.536-11.907-30.732-11.523-30.732-11.523
	c-41.104-1.922-48.019,10.372-48.019,10.372c-9.22,14.981,7.684,21.896,7.684,21.896s-50.324-2.305-84.129-1.537
	c-33.804,0.768-33.804-20.744-33.804-20.744c0.384-13.829,19.67-17.391,28.714-20.262c8.163-2.592,66.554-5.475,66.554-5.475
	s78.366-1.152,80.286-1.152c1.922,0,48.786,1.92,74.141-6.531c25.354-8.453,21.128-26.891,21.128-26.891
	c0.384-21.896-12.292-26.122-18.438-29.963s-33.806-8.067-33.806-8.067s-32.652-2.305-41.872-3.458s-34.572-3.841-48.019-9.22
	c-8.133-3.254-15.365-6.914-13.829-17.671C196.679,9.087,218.21,5.501,222.82,5.117c4.609-0.384,33.804-1.152,33.804-1.152
	c-16.519,3.457-13.06,13.829-13.06,13.829c-0.386,11.14,8.834,16.134,19.975,20.359c11.141,4.225,43.793,4.226,58.391,0.385
	s12.677-14.598,12.677-14.598c-1.92-8.836-9.987-9.604-9.987-9.604c13.829,10.756,1.152,17.67,1.152,17.67
	c-5.379,4.994-34.189,4.61-34.189,4.61c-23.433-0.384-35.727-7.298-35.727-7.298c-8.451-4.995-6.146-11.141-2.688-17.287
	c3.456-6.146,30.347-8.452,30.347-8.452c-2.306,0-8.067,4.609-9.22,9.989c-1.152,5.378,3.458,12.676,10.372,13.828
	c6.915,1.153,25.738,0.77,29.963-4.994c4.226-5.762-4.225-9.604-4.225-9.604c-8.067-2.304-8.451,4.226-8.451,4.226l6.53-1.152
	c4.609,1.921-0.384,5.762-0.384,5.762c-5.763,1.921-19.592,1.153-19.592,1.153c-10.756-1.921-8.452-11.909-5.378-14.213
	c3.073-2.306,9.988-3.458,9.988-3.458l60.694,0.768l-1.153-5.762h-118.7c0,0-34.188-2.304-41.872,13.061
	c0,0-8.684,15.937,3.457,27.659c11.141,10.756,38.03,12.677,58.007,13.829c8.821,0.509,76.061,6.146,85.665,18.439
	c0,0,6.529,5.762,6.714,15.568c0.099,5.18-2.777,12.09-9.404,17.852c0,0-7.298,7.684-39.566,10.372
	c-46.066,3.841-81.438,3.073-81.438,3.073s19.975-3.842,19.591-23.049c0,0,1.839-19.029-29.979-22.812c0,0-37.609-4.46-82.555-2.923
	c0,0-46.503,0.382-61.1,4.608c0,0-14.598,3.842-14.598,16.903c0,0-3.361,15.942,34.381,19.977c0,0,28.811,3.168,49.363-3.075
	c0,0,10.372-3.458,10.372-11.524c0,0,0.768-11.523-24.97-12.292c0,0,33.037-0.001,42.257,0.768
	c9.22,0.769,17.38,5.379,17.766,11.142c0,0,2.017,14.117-29.291,18.055c-31.312,3.936-81.055,3.266-86.049,3.457
	c-7.716,0.296-42.256-1.154-51.859,7.682s-8.836,18.441-8.836,23.435s1.152,23.048,18.439,25.737
	c17.286,2.688,74.522,4.226,84.128,4.226c9.604,0,145.977,1.152,155.964,1.152s92.962-1.152,95.268-1.152l-1.92-6.915
	L215.905,173.756z M223.203,85.021c11.139,6.915,4.418,19.014,4.418,19.014c-6.051,15.271-42.064,15.271-42.064,15.271
	c26.219-5.474,23.914-22.185,23.914-22.185c-0.576-17.575-23.625-20.456-23.625-20.456
	C213.792,77.817,223.203,85.021,223.203,85.021z M21.047,171.166c0,0-16.423-0.289-16.423-24.201c0,0-1.152-17.287,18.728-21.032
	l25.93-2.306c0,0-25.354,2.594-27.37,16.134c0,0-5.762,16.135,9.22,25.065c0,0,15.846,9.508,41.775,9.508
	C72.906,174.333,41.79,174.622,21.047,171.166z M45.248,165.115c-19.592-6.627-18.727-19.88-18.727-19.88
	c0-12.389,18.438-17.575,18.438-17.575c9.22-3.168,33.997-3.457,33.997-3.457c18.727-0.576,38.895-1.44,38.895-1.44
	c27.37-0.864,43.793-6.627,43.793-6.627c22.185-6.626,20.455-16.421,20.455-16.421c-1.152-12.677-12.677-15.559-12.677-15.559
	c-13.829-5.186-50.63-3.849-50.63-3.849c-27.347,1.892-40.412,5.002-40.412,5.002c-12.045,2.91-7.779,12.676-7.779,12.676
	c1.939,4.178,8.598,5.546,14.735,6.119c5.716,0.534,11.005,0.411,11.005,0.411c16.948-0.301,15.171-4.801,15.171-4.801
	c0.034-4.059-7.778-4.898-7.778-4.898c-10.372-1.441-9.796,1.152-9.796,1.152c-0.293,2.428,7.197,2.473,7.197,2.473
	c6.119-0.045,5.191,1.561,5.191,1.561c-0.169,0.541-1.711,0.963-3.547,1.18c-5.467,0.644-13.74,0.262-13.74,0.262
	c-12.676-0.576-13.828-6.339-13.828-6.339c-0.289-4.609,5.186-6.339,5.186-6.339c10.948-2.88,33.133-1.152,33.133-1.152
	c21.896,2.017,22.184,10.66,22.184,10.66c-1.152,9.508-24.777,10.948-24.777,10.948c-15.27,2.017-37.454-2.305-37.454-2.305
	c-25.354-4.897-21.896-15.271-21.896-15.271c0.474-8.244,13.541-12.1,13.541-12.1c13.419-3.71,39.374-4.128,39.374-4.128
	c9.507-0.288,47.635,0,47.635,0c15.846,0.577,35.726,5.28,35.726,5.28c14.981,4.898,16.134,15.847,16.134,15.847
	c-0.287,8.066-8.066,14.405-8.066,14.405c-7.779,6.915-46.963,10.372-46.963,10.372c-33.996,2.305-52.724,7.49-52.724,7.49
	c-25.065,5.763-22.761,22.473-22.761,22.473c0,18.439,20.456,21.033,20.456,21.033C72.906,171.166,45.248,165.115,45.248,165.115z"
	/>
</svg>
