<?xml version="1.0" encoding="utf-8"?>
<!-- Generator: Adobe Illustrator 15.0.0, SVG Export Plug-In  -->
<!DOCTYPE svg PUBLIC "-//W3C//DTD SVG 1.1//EN" "http://www.w3.org/Graphics/SVG/1.1/DTD/svg11.dtd" [
	<!ENTITY ns_flows "http://ns.adobe.com/Flows/1.0/">
]>
<svg version="1.1"
	 xmlns="http://www.w3.org/2000/svg" xmlns:xlink="http://www.w3.org/1999/xlink" xmlns:a="http://ns.adobe.com/AdobeSVGViewerExtensions/3.0/"
	 x="0px" y="0px" width="25px" height="23px" viewBox="-0.635 -0.083 25 23"
	 overflow="visible" enable-background="new -0.635 -0.083 25 23" xml:space="preserve">
<defs>
</defs>
<g>
	<defs>
		<circle id="SVGID_1_" cx="13.407" cy="12.264" r="10.631"/>
	</defs>
	<use xlink:href="#SVGID_1_"  overflow="visible" fill="#E94B24"/>
	<clipPath id="SVGID_2_">
		<use xlink:href="#SVGID_1_"  overflow="visible"/>
	</clipPath>
	<g clip-path="url(#SVGID_2_)">
		<path fill="#FFFFFF" stroke="#E94B24" stroke-width="1.5693" stroke-miterlimit="10" d="M18.542,5.094
			c1.648,0.593,2.077,1.894,1.381,3.824l-3.778,10.5c-0.695,1.933-1.844,2.638-3.494,2.042L2.067,17.523
			c-0.842-0.404-0.969-0.672-1.223-1.21C0.655,15.91,0.927,14.919,1.5,14.65c0.403-0.19,0.878-0.312,2.042,0.064l7.553,3.377
			c0.834,0.303,1.144,0.111,1.457-0.758l1.993-8.998c0.312-0.869-0.349-1.434-1.184-1.733l-7.7-2.833
			C4.989,3.425,4.748,2.821,4.92,2.089c0.192-0.824,0.867-1.548,1.861-1.227L18.542,5.094z"/>
		<path fill="#FFFFFF" stroke="#E94B24" stroke-width="0.7846" stroke-miterlimit="10" d="M12.544,6.972
			c0.948,0.34,1.195,1.088,0.795,2.199l-2.173,6.041c-0.4,1.111-1.062,1.517-2.01,1.175l-6.088-2.266
			c-0.485-0.232-0.557-0.387-0.704-0.695c-0.108-0.232,0.048-0.803,0.377-0.958c0.232-0.108,0.505-0.178,1.175,0.038l4.345,1.944
			c0.48,0.172,0.658,0.062,0.838-0.436l1.146-5.178c0.18-0.5-0.2-0.824-0.682-0.996l-4.428-1.63
			C4.748,6.011,4.609,5.663,4.708,5.243c0.111-0.474,0.5-0.89,1.071-0.707L12.544,6.972z"/>
		<path fill="#FFFFFF" d="M8.018,12.596c-0.171,0.474-0.531,0.616-1.046,0.43l-3.859-1.389c-0.508-0.184-0.7-0.525-0.531-0.998
			L3.75,7.396c0.172-0.474,0.54-0.62,1.048-0.438l3.858,1.389c0.517,0.186,0.7,0.532,0.529,1.006L8.018,12.596z M6.946,12.408
			c0.279,0.101,0.375,0.069,0.456-0.159L8.064,9.25c0.083-0.228,0.032-0.319-0.248-0.42L4.791,7.67
			c-0.28-0.102-0.374-0.069-0.46,0.165l-0.772,3.02c-0.084,0.233-0.029,0.312,0.251,0.414L6.946,12.408z"/>
	</g>
</g>
</svg>
