<?xml version="1.0" encoding="utf-8"?>
<!-- Generator: Adobe Illustrator 15.0.0, SVG Export Plug-In  -->
<!DOCTYPE svg PUBLIC "-//W3C//DTD SVG 1.1//EN" "http://www.w3.org/Graphics/SVG/1.1/DTD/svg11.dtd" [
	<!ENTITY ns_flows "http://ns.adobe.com/Flows/1.0/">
]>
<svg version="1.1"
	 xmlns="http://www.w3.org/2000/svg" xmlns:xlink="http://www.w3.org/1999/xlink" xmlns:a="http://ns.adobe.com/AdobeSVGViewerExtensions/3.0/"
	 x="0px" y="0px" width="93px" height="132px" viewBox="-0.372 -0.967 93 132"
	 overflow="visible" enable-background="new -0.372 -0.967 93 132" xml:space="preserve">
<defs>
</defs>
<path fill="#FFFFFF" stroke="#E94B24" stroke-miterlimit="10" d="M23.243,60.862c0,0-1.093-1.093-0.655-5.898
	c0,0,0.218-2.84-1.966-3.057c0,0-1.093-1.747-1.529-3.495c-0.437-1.747-2.62-1.747-2.62-1.747s-1.093-2.186-2.622-0.874
	c-1.528,1.311-1.528,1.965-0.655,4.15c0.875,2.183-0.441,2.091-1.032,1.278c-1.311-1.802-2.462-7.177-5.302-6.303
	c-2.839,0.874-3.981,1.803-5.948,1.803c-1.966,0,3.522,2.939,7.25,7.5c2.968,3.631,7.28,11.204,10,12.25
	c3.25,1.25,5.25,1.75,5.25,1.75L23.243,60.862z"/>
<path fill="#FFFFFF" stroke="#E94B24" stroke-miterlimit="10" d="M48.628,21.699c0,0,4.334-5.333,14.368-8.236
	c7.962-2.303,10.922-5.46,12.45-9.61c1.529-4.15,1.093-3.276,1.093-3.276s0.655,2.184,2.184,4.15
	c1.529,1.966,1.966,3.495-0.437,4.369c-2.403,0.874-3.714,3.713-1.747,3.713c1.965,0,6.115-0.218,6.115-0.218
	s0.437,2.621-0.656,3.713c0,0-1.747,0.437-1.31,2.84c0,0-0.437,3.276-5.023,2.621c-4.587-0.656-10.048-0.219-11.14,1.311
	c-1.092,1.529,0.218,3.058,3.931,2.621c3.714-0.437,9.394-0.874,10.267,3.058c0.874,3.932-0.437,5.898,4.368,6.771
	c4.806,0.873,6.989,0.436,6.989,5.898c0,5.459-1.309,9.392,0.874,9.392c2.185,0-3.932,3.495-7.208-1.966S80.907,37.927,72.17,36.617
	c-8.736-1.311-12.668-1.529-16.163-3.277c0,0-8.955,1.966-12.231,10.703c-3.277,8.737-1.093,13.98,5.242,18.349
	c6.334,4.368,19.001,13.323,22.497,17.255c0,0,7.863,8.736,6.989,22.061s-0.655,9.83-0.874,13.324
	c-0.112,1.798-0.436,2.402-2.621,2.402c-2.184,0-4.367,0.219-5.241,1.092c-0.875,0.874-5.242,2.84-7.645,1.748
	c-2.403-1.093-1.312-2.621-2.186-3.276c0,0-3.275-2.621-6.334-3.714c-3.058-1.092-10.921-5.242-12.887-12.887
	c0,0-6.334-5.46-11.14-16.163c-4.805-10.703-9.61-12.887-3.932-36.04c0,0,7.64-20.083,22.279-25.774"/>
<path fill="#FFFFFF" stroke="#E94B24" stroke-miterlimit="10" d="M34.384,92.533c0,0-4.587-2.185-6.553-4.587
	c-1.966-2.403-4.807-3.277-7.427-2.403c-2.621,0.874-5.461,0.874-4.587,2.186c0.874,1.31,3.277,3.058,4.806,3.931
	c1.528,0.874,2.621,3.277-1.966,0.438s-9.173-3.277-8.956-0.438c0,0,0.874,0.874-0.873,1.748c-1.747,0.873-3.276,1.31-1.529,3.931
	c0,0-3.058-2.184-0.655,3.059c0,0,2.143,3.108,1.27,5.073c0,0,1.937-1.837,5.5-3.5c3.75-1.75,4.927-2.193,11.25-4
	c3.5-1,4.403-1.275,8.5-1l4.061-0.505L34.384,92.533z"/>
<path fill="#FFFFFF" stroke="#E94B24" stroke-miterlimit="10" d="M68.808,77.351c0-1.924,0.448-5.082-0.175-6.879
	c-0.614-1.774-2.938-2.883-2.583-4.811c0.222-1.198,1.701-1.464,2.363-2.397c0.796-1.123,0.704-2.173,0.711-3.506
	c0.003-0.817-1.218-1.624,0.208-1.958c1.304-0.307,1.534,1.549,2.615,1.536c1.471-0.018,1.842-2.907,3.452-3.767
	c1.948-1.04,3.038,0.318,4.362-0.395c1.6-0.859,2.137-3.234,4.423-3.274c0.596-0.012,5.233,1.425,5.468,1.795
	c0.15,0.039,0.271,0.117,0.363,0.235c-2.144,0.711-5.172,1.436-6.759,3.217c-1.63,1.827-1.306,4.717-2.131,6.931
	c-1.117,2.993-3.052,5.693-4.309,8.742c-1.277,3.104-4.007,4.383-6.645,6.327c0.076-0.202,0.159-0.399,0.25-0.595L68.808,77.351z"/>
<path fill="#FFFFFF" stroke="#E94B24" stroke-miterlimit="10" d="M44.213,58.042c1.535-1.29,2.905-2.628,4.756-3.581
	c1.971-1.017,3.938-0.727,6.132-0.842c-0.022-0.881-0.429-2.249-1.012-2.865c-0.372-0.392-1.641-0.455-1.766-0.797
	c-0.294-0.807,0.625-0.658,0.625-1.11c0.002-0.477,0.516-0.874,0.278-1.751c-0.164-0.613-1.059-0.684-1.166-1.029
	c-0.331-1.066,0.326-2.203,0.021-3.334c-0.708-2.614-3.983-1.559-5.685-0.175c-3.101,2.522-3.779,6.426-3.778,10.062
	C42.618,52.62,42.724,55.105,44.213,58.042z"/>
<path fill="#E94B24" d="M57.1,105.638c0,3.015-2.483,5.09-5.138,5.09c-2.653,0-5.044-2.877-5.044-5.893s2.723-4.658,5.376-4.658
	C54.948,100.177,57.1,102.622,57.1,105.638z"/>
<path fill="#FFFFFF" d="M55.2,105.047c0,1.811-1.267,3.43-3.015,3.43c-1.749,0-3.409-1.619-3.409-3.43
	c0-1.809,1.66-3.122,3.409-3.122C53.934,101.925,55.2,103.239,55.2,105.047z"/>
<path fill="#E94B24" d="M53.448,105.207c0,0.966-0.743,1.699-1.7,1.742c-0.662,0.029-1.538-0.776-1.538-1.742
	c0-0.964,0.875-1.755,1.538-1.754C52.651,103.455,53.448,104.243,53.448,105.207z"/>
<path fill="none" stroke="#E94B24" stroke-width="0.5" stroke-linecap="round" stroke-linejoin="bevel" stroke-miterlimit="10" d="
	M74.191,117.324c0,0-1.675-0.613-3.753,0.282c-1.62,0.698-2.159,1.917-2.159,1.917s2.432-0.057,3.68-0.524
	C73.208,118.531,74.191,117.324,74.191,117.324z"/>
<path fill="#E94B24" d="M74.191,117.324c0,0,1.731-0.67,2.516-0.142c0,0-0.156,2.028-2.186,2.185
	c-2.028,0.156-2.809,0.78-3.276,1.093c-0.469,0.312-3.864,1.219-4.491,0.217c0,0-0.335-0.726,1.005-1.061
	c0.677-0.169,1.117-0.056,1.117-0.056S73.021,119.579,74.191,117.324z"/>
<path opacity="0.65" fill="none" stroke="#E94B24" stroke-width="0.5" stroke-linecap="round" stroke-linejoin="bevel" stroke-miterlimit="10" d="
	M70.474,60.693c0,0,3.135,8.733-0.526,16.277"/>
<path opacity="0.65" fill="none" stroke="#E94B24" stroke-width="0.5" stroke-linecap="round" stroke-linejoin="bevel" stroke-miterlimit="10" d="
	M69.473,77.541c4.667-2.334,4.808-12.816,4.808-12.816"/>
<path opacity="0.65" fill="none" stroke="#E94B24" stroke-width="0.5" stroke-linecap="round" stroke-linejoin="bevel" stroke-miterlimit="10" d="
	M77.067,58.744c0,0-0.57,3.798-1.14,6.266c-0.569,2.468-1.424,9.587-5.98,12.72"/>
<path opacity="0.65" fill="none" stroke="#E94B24" stroke-width="0.5" stroke-linecap="round" stroke-linejoin="bevel" stroke-miterlimit="10" d="
	M86.372,53.751c0,0-6.61,1.424-8.355,10.024c-0.677,3.335-3.513,12.247-7.689,14.24"/>
<path fill="none" stroke="#E94B24" stroke-width="0.5" stroke-miterlimit="10" d="M23.897,87.789
	c2.583,1.999,3.528,5.431,10.516,5.431"/>
<path fill="none" stroke="#E94B24" stroke-width="0.5" stroke-miterlimit="10" d="M34.413,93.219c-3.75,0.75-6.75-1-8.75-2.25
	s-6.021-2.957-6.021-2.957"/>
<path fill="none" stroke="#E94B24" stroke-width="0.5" stroke-miterlimit="10" d="M34.413,93.219
	c-6.934,1.511-12.307-1.624-12.307-1.624"/>
<path fill="none" stroke="#E94B24" stroke-width="0.5" stroke-miterlimit="10" d="M13.663,92.469c0,0,4.75,2.5,11.75,2
	c2.493-0.179,6,0.25,9-1.25"/>
<path fill="none" stroke="#E94B24" stroke-width="0.5" stroke-miterlimit="10" d="M9.913,95.469c0,0,6.891,1.354,12.641,0.604
	s9.405-1.12,11.859-2.854"/>
<path fill="none" stroke="#E94B24" stroke-width="0.5" stroke-miterlimit="10" d="M9.163,98.719c0,0,4.25,0.5,11.25-1.25
	c4.709-1.177,11.098-1.396,14.681-3.411"/>
<path fill="none" stroke="#E94B24" stroke-width="0.5" stroke-miterlimit="10" d="M5.413,47.969c0,0,6,6.75,7.25,9.5
	s4.74,7.927,9.666,8.822"/>
<path fill="none" stroke="#E94B24" stroke-width="0.5" stroke-miterlimit="10" d="M13.163,53.969c0,0,3.192,7.979,8.942,10.979"/>
<path fill="none" stroke="#E94B24" stroke-width="0.5" stroke-miterlimit="10" d="M15.663,51.469c0,0,0.62,7.657,6.666,11.912"/>
<path fill="none" stroke="#E94B24" stroke-width="0.5" stroke-miterlimit="10" d="M17.163,48.969c0,0,2.088,10.016,5.838,13.516"/>
<path fill="none" stroke="#E94B24" stroke-width="0.5" stroke-miterlimit="10" d="M76.52,3.369c0,0,1.344,6.494-11.356,11.101
	c-6.466,2.346-12.5,6-15,8.25"/>
<path fill="none" stroke="#E94B24" stroke-width="0.5" stroke-miterlimit="10" d="M51.44,23.522
	c10.135-6.841,9.145-5.394,16.347-8.061c6.75-2.5,6.941-4.255,6.941-4.255"/>
<path fill="none" stroke="#E94B24" stroke-width="0.5" stroke-miterlimit="10" d="M53.008,24.194c0,0,4.957-2.729,8.957-4.479
	s8.948-2.496,11.948-3.746"/>
<path fill="none" stroke="#E94B24" stroke-width="0.5" stroke-miterlimit="10" d="M54.352,25.313c0,0,7.062-4.844,13.312-5.844
	s10.75-2,11.5-2.25"/>
<path fill="none" stroke="#E94B24" stroke-width="0.5" stroke-miterlimit="10" d="M55.694,26.433c0,0,2.464-1.792,6.271-2.239"/>
<path fill="none" stroke="#E94B24" stroke-width="0.5" stroke-miterlimit="10" d="M56.366,27.553c0,0,3.744-1.792,6.494-1.792"/>
<path fill="none" stroke="#E94B24" stroke-width="0.5" stroke-miterlimit="10" d="M70.663,27.469c-7-1.25-14.297,0.755-14.297,0.755
	"/>
<path fill="none" stroke="#E94B24" stroke-width="0.5" stroke-miterlimit="10" d="M57.038,30.464c0,0,5.374-1.344,12.316-0.224
	c3.455,0.557,7.837,0.896,7.837,0.896"/>
<path fill="none" stroke="#E94B24" stroke-width="0.5" stroke-miterlimit="10" d="M57.71,31.359c0,0,8.062-0.224,15.203,1.36
	c3.936,0.873,5.25,2.25,5.25,2.25s3.75,2.5,6.75,2.25"/>
<path fill="none" stroke="#E94B24" stroke-width="0.5" stroke-miterlimit="10" d="M57.934,32.703c0,0,9.852,0.224,13.884,1.567
	c5.25,1.75,8.509,2.687,12.596,8.949c0,0,1.735,3.144,1.735,4.487"/>
<path fill="none" stroke="#E94B24" stroke-width="0.5" stroke-miterlimit="10" d="M56.814,29.344c0,0,6.94-1.568,11.644-0.896
	s7.166,0.672,7.166,0.672"/>
<path fill="#E94B24" d="M30.295,39.366c4.667,4.333-0.506,13.597,0.076,15.649c0.804,2.832,3.183,5.579,3.906,8.684
	c0.657,2.818-0.214,6.128,0.335,8.667c1.021,4.725,11.948,4.358,8.022,10.999c-2.193,3.711-4.195,1.86-7.015,1.731
	c-3.364-0.153-2.103,0.873-3.658,3.468c-3.546-6.81-6.74-9.786-8.74-20.12C21.654,60.346,25.98,43.854,30.295,39.366"/>
<path fill="#E94B24" d="M74.628,84.7c-6,1.333-9.117,3.373-11,6.333c-2.333,3.667-2.325,5.789-2,9.333
	c0.096,1.04-0.482,3.389,0.277,4.098c0.935,0.874,5.864,0.457,7.119,0.002c3.582-1.301,7.013-7.532,9.271-10.433
	C77.295,89.366,76.607,86.621,74.628,84.7"/>
<path fill="none" stroke="#E94B24" stroke-miterlimit="10" d="M60.663,117.469c0,0,5.004-0.202,7.483-2.421
	c0,0,1.958-2.22,4.96-2.089c3.001,0.13,4.307,0,4.307,0"/>
<path fill="#FFFFFF" stroke="#E94B24" stroke-miterlimit="10" d="M59.561,117.573l-1.363-0.818c0,0-1.182,0.227-2.032,1.166
	c-0.55,0.609-1.032,1.422-0.828,2.852c0,0,1.294,2.862-1.09,4.087c0,0-2.996,0.545-2.86,3.27c0,0,0.545-1.157,2.52-2.043
	c1.976-0.885,2.248-0.682,2.656-0.953c0.409-0.273,1.091-0.818,0.954-2.656c-0.137-1.839,1.226-3.61,2.793-4.224L59.561,117.573z"/>
<path fill="none" stroke="#E94B24" stroke-miterlimit="10" d="M59.015,117.503c0,0-2.247,0.749-2.52,3.065
	c-0.223,1.894,0.272,2.859-0.75,3.95c-1.021,1.09-2.791,1.022-3.813,2.656"/>
<path fill="#FFFFFF" stroke="#E94B24" stroke-miterlimit="10" d="M78.461,111.203c0,0,1.498,0.271,2.588-1.363
	c0,0,0.477-1.497,3.271-1.226c0,0,2.723,0.885,3.881-1.021c0,0-0.194,2.984-2.725,3.406c-1.227,0.204-2.316,0.067-2.316,0.067
	s-0.681,0.205-1.361,1.363c-0.681,1.156-1.703,1.565-3.337,1.77V111.203z"/>
<path fill="none" stroke="#E94B24" stroke-miterlimit="10" d="M87.928,108.206c0,0-0.817,1.498-3.608,1.498
	c-1.777,0-1.841,0.273-2.452,1.022c-0.614,0.747-1.159,1.566-3.27,1.975"/>
</svg>
