<?xml version="1.0" encoding="utf-8"?>
<!-- Generator: Adobe Illustrator 15.0.0, SVG Export Plug-In . SVG Version: 6.00 Build 0)  -->
<!DOCTYPE svg PUBLIC "-//W3C//DTD SVG 1.1//EN" "http://www.w3.org/Graphics/SVG/1.1/DTD/svg11.dtd">
<svg version="1.1" id="レイヤー_1" xmlns="http://www.w3.org/2000/svg" xmlns:xlink="http://www.w3.org/1999/xlink" x="0px"
	 y="0px" width="89.241px" height="144.535px" viewBox="0 0 89.241 144.535" enable-background="new 0 0 89.241 144.535"
	 xml:space="preserve">
<g>
	<path fill="#E94B24" stroke="#FFFFFF" stroke-linecap="round" stroke-linejoin="round" stroke-miterlimit="10" d="M60.924,32.433
		c0,0,3.631-3.619-0.559-13.189c-3.321-7.594-2.788-11.887-0.576-15.716C62-0.305,61.607,0.591,61.607,0.591
		s-2.312-0.041-4.585,0.977c-3.261,1.46-7.265,4.751-9.002,9.424c-2.866,7.713,2.019,14.596-0.55,11.878
		c-5.677-6.001-7.918-5.787-10.225-6.028c-4.951-0.517-8.053-0.246-10.604,1.547c0,0,5.43,4.813,13.043,9.293
		c8.922,5.251,9.34,6.633,11.65,10.962c0,0,2.869,5.964,3.152,14.943c0.246,7.835-1.604,15.197-4.883,18.644
		c-6.977,7.336-14.788,13.743-18.9,17.024c0,0-12.823,7.846-17.408,20.85c-1.721,4.881-3.396,9.898-4.711,13.512
		c-0.266,0.73,0.711,1.15,0.588,1.814c-0.221,1.186-0.207,2.162-0.311,3.119c-0.195,1.791,0.814,2.643,2.969,3.014
		c2.152,0.371,4.214,0.959,4.927,1.969c0.714,1.01,3.288,3.057,5.841,2.389c2.555-0.67,1.717-1.74,2.689-2.236
		c0,0,8.6-4.432,11.168-6.418c6.439-4.98,8.217-7.156,15.84-14.354c0,0,6.592-7.561,10.332-13.648
		C70.021,87.238,72.771,81.96,73.01,65.76c0,0-0.921-7.334-3.096-14.525c-2.582-8.533-4.441-9.719-7.03-14.97L60.924,32.433z"/>
	<g>
		<path fill="#E94B24" stroke="#FFFFFF" stroke-width="0.25" stroke-miterlimit="10" d="M26.898,127.154
			c0.858,0.953,2.633,0.99,4.26,0.113c1.146-0.617,2.865-2.1,1.923-3.488c-1.118-1.65-2.787-2.1-4.533-1.152
			C26.8,123.576,26.104,126.27,26.898,127.154z"/>
		<path fill="#FFFFFF" d="M27.67,126.912c0.712,0.711,2.171,0.682,3.56-0.072c1.393-0.754,1.787-1.766,1.209-2.834
			c-0.576-1.072-2.004-1.75-3.395-0.996S26.809,126.049,27.67,126.912z"/>
		<path fill="#E94B24" d="M28.453,126.982c0.783,0.356,1.719,0.138,2.998-0.502c0.551-0.275,0.349-1.547,0.06-2.086
			c-0.291-0.537-1.643-1.041-2.773-0.117C27.854,124.998,27.89,126.726,28.453,126.982z"/>
	</g>
	<g>
		<path fill="#E94B24" stroke="#FFFFFF" stroke-width="0.25" stroke-miterlimit="10" d="M12.769,120.209
			c-0.545,0.218-1.913-0.819-2.197-1.958c-0.416-1.67,0.149-3.032,1.008-3.23c0.856-0.197,1.794,0.851,1.954,2.562
			C13.695,119.296,13.408,119.954,12.769,120.209z"/>
		<path fill="#FFFFFF" d="M12.209,119.533c-0.574,0.184-1.234,0.229-1.638-1.281c-0.285-1.068,0.064-2.706,0.997-2.706
			c0.284,0,1.653,0.111,1.782,1.474C13.479,118.382,13.101,119.248,12.209,119.533z"/>
		<path fill="#E94B24" d="M12.232,119.705c-0.442,0.002-0.926-0.602-1.071-1.35c-0.248-1.279,0.396-1.666,0.81-1.73
			c0.414-0.061,1.097,0.502,1.177,1.764C13.199,119.164,12.654,119.703,12.232,119.705z"/>
	</g>
	<path fill="none" stroke="#E94B24" stroke-width="0.5" stroke-linecap="round" stroke-linejoin="bevel" stroke-miterlimit="10" d="
		M11.509,130.969c0,0,2.28,0.21,4.271,1.282c2.017,1.085,2.634,1.851,2.634,1.851s-3.668,0.062-4.818-0.612
		C12.443,132.818,11.509,130.969,11.509,130.969z"/>
	<path fill="#E94B24" d="M12.149,131.824c0,0-1.132-1.527-1.994-1.139c0,0-0.692,1.992,1.282,2.491
		c1.973,0.498,3.08,1.963,3.488,2.35s3.773,1.21,4.771,0.143c0,0,0.693-1.009-0.57-1.566c-0.639-0.281-3.286-0.328-3.286-0.328
		C17.622,134.074,12.896,133.262,12.149,131.824z"/>
	<path fill="#FFFFFF" stroke="#E94B24" stroke-width="0.8146" stroke-miterlimit="10" d="M57.691,105.013
		c0,0,4.174-2.508,10.291-0.604c1.998,0.623,4.447,3.588,5.268,4.953c2.311,3.848,1.604,7.398,0.992,10.668
		c0,0-5.977-1.016-12.322-4.201c-3.93-1.975-7.657-5.955-7.657-5.955L57.691,105.013z"/>
	<g opacity="0.65">
		<path fill="none" stroke="#E94B24" stroke-width="0.4073" stroke-miterlimit="10" d="M66.337,104.388
			c0.298,1.053-4.81,4.309-10.017,3.412"/>
		<path fill="none" stroke="#E94B24" stroke-width="0.4073" stroke-miterlimit="10" d="M56.32,107.8
			c2.684,1.129,5.72,0.93,7.502,0.605c7.014-1.273,6.465-2.447,6.465-2.447"/>
		<path fill="none" stroke="#E94B24" stroke-width="0.4073" stroke-miterlimit="10" d="M55.758,108.535
			c14.996,3.068,17.214,0.225,17.214,0.225"/>
		<path fill="none" stroke="#E94B24" stroke-width="0.4073" stroke-miterlimit="10" d="M73.66,111.437c0,0-2.012,1.656-10.862,0.131
			c-1.864-0.32-5.026-1.35-7.04-3.033"/>
		<path fill="none" stroke="#E94B24" stroke-width="0.4073" stroke-miterlimit="10" d="M74.387,114.455c0,0-4.565-0.008-8.887-0.752
			c-3.479-0.6-8.809-3.09-10.38-4.904"/>
		<path fill="none" stroke="#E94B24" stroke-width="0.4073" stroke-miterlimit="10" d="M74.164,117.421c0,0-2.203,0.584-7.361-1.268
			c-5.963-2.141-9.48-4.736-11.85-6.939"/>
	</g>
	<path fill="#FFFFFF" stroke="#E94B24" stroke-width="0.8084" stroke-miterlimit="10" d="M72.606,71.353c0,0,1.439-1.709,1.973-2.83
		c0,0,1.341-3.385,4.116-4.803c1.329-0.679,6.664-1.112,9.005,0c2.341,1.11,0.877,3.477-2.658,6.518
		c-6.566,5.65-13.292,6.175-13.292,6.175L72.606,71.353z"/>
	<g opacity="0.65">
		<path fill="none" stroke="#E94B24" stroke-width="0.4042" stroke-miterlimit="10" d="M87.424,65.888
			c-1.532,1.757-8.365,8.377-15.37,10.155"/>
		<path fill="none" stroke="#E94B24" stroke-width="0.4042" stroke-miterlimit="10" d="M85.07,64.181c0,0-5.825,9.25-13.094,10.879"
			/>
		<path fill="none" stroke="#E94B24" stroke-width="0.4042" stroke-miterlimit="10" d="M82.104,63.851c0,0-3.631,7.687-9.814,10.399
			"/>
		<path fill="none" stroke="#E94B24" stroke-width="0.4042" stroke-miterlimit="10" d="M79.342,64.511c0,0-3.43,6.821-7.266,8.688"
			/>
	</g>
	<path fill="none" stroke="#FFFFFF" stroke-width="0.5" stroke-linecap="round" stroke-linejoin="bevel" stroke-miterlimit="10" d="
		M24.537,133.603c0,0-3.986,0.215-6.612-2.785c0,0-1.718-2.127-5.349-2.625c-2.975-0.408-3.496-0.621-3.496-0.621"/>
	<path fill="#FFFFFF" stroke="#E94B24" stroke-miterlimit="10" d="M51.305,70.207c-1.494-1.337-2.578-3.001-3.911-4.6
		c-4.832-5.795-3.712-10.379-2.803-11.119c1.471-1.2,4.489,0.507,6.147,1.942c3.019,2.618,3.113,4.602,2.998,8.237
		C53.736,64.668,53.418,66.905,51.305,70.207z"/>
	<g>
		<path opacity="0.65" fill="none" stroke="#E94B24" stroke-width="0.5" stroke-miterlimit="10" d="M49.67,55.779
			c0,0,3.175,5.103,3.439,10.552"/>
		
			<path opacity="0.65" fill="none" stroke="#E94B24" stroke-width="0.5" stroke-linecap="round" stroke-linejoin="bevel" stroke-miterlimit="10" d="
			M46.345,55.509c0,0,5.496,5.509,6.331,11.998"/>
		
			<path opacity="0.65" fill="none" stroke="#E94B24" stroke-width="0.5" stroke-linecap="round" stroke-linejoin="bevel" stroke-miterlimit="10" d="
			M44.324,56.111c0,0,6.289,6.868,7.749,11.675"/>
		
			<path opacity="0.65" fill="none" stroke="#E94B24" stroke-width="0.5" stroke-linecap="round" stroke-linejoin="bevel" stroke-miterlimit="10" d="
			M44.198,60.11c0,0,4.722,3.649,8.046,8.573"/>
	</g>
	<path fill="none" stroke="#E94B24" stroke-linecap="round" stroke-linejoin="round" stroke-miterlimit="10" d="M28.897,131.561
		c2.668,3.165-0.213,4.884-1.097,6.576c-1.226,2.349,0.72,4.305-1.738,5.897c0.78-2.028-1.333-4.072,0.039-6.36
		c0.581-0.967,1.856-1.327,1.716-2.747c-0.082-0.823-1.172-1.954-1.475-2.284L28.897,131.561z"/>
	<path fill="none" stroke="#E94B24" stroke-linecap="round" stroke-linejoin="round" stroke-miterlimit="10" d="M0.5,130.319
		c2.12-0.301,4.759-0.425,5.414-2.957c0.38-1.467,1.073-4.335,3.307-3.488l0.533,1.075c0,0-1.744,0.068-2.334,2.503
		c-0.588,2.436-1.642,3.559-3.471,3.461C1.1,130.761,0.5,130.319,0.5,130.319z"/>
	
		<path fill="#FFFFFF" stroke="#E94B24" stroke-width="0.8254" stroke-linecap="round" stroke-linejoin="bevel" stroke-miterlimit="10" d="
		M28.447,91.146c0.404-0.229,0.812-2.164,0.725-4.162c-0.141-3.207-1.688-5.699-2.537-6.559c-2.624-2.67-5.271-3.912-7.057-4.523
		c-3.166-1.086-5.924-0.805-6.016-0.723c1.65,0.871-0.351,5.219,4.797,13.07c2.67,4.07,4.889,4.473,6.463,5.543
		C26.473,92.761,27.629,91.607,28.447,91.146z"/>
	<g>
		
			<path opacity="0.65" fill="none" stroke="#E94B24" stroke-width="0.4127" stroke-linecap="round" stroke-linejoin="bevel" stroke-miterlimit="10" d="
			M25.77,80.316c0.629,7.738,1.271,6.992,2.211,10.205"/>
		
			<path opacity="0.65" fill="none" stroke="#E94B24" stroke-width="0.4127" stroke-linecap="round" stroke-linejoin="bevel" stroke-miterlimit="10" d="
			M26.719,91.099c-3.482-2.533-2.771-12.217-2.771-12.217"/>
		
			<path opacity="0.65" fill="none" stroke="#E94B24" stroke-width="0.4127" stroke-linecap="round" stroke-linejoin="bevel" stroke-miterlimit="10" d="
			M21.5,77.035c0,0-0.438,4.215,0.261,7.107c0.489,2.033,1.26,4.611,4.06,7.756"/>
		
			<path opacity="0.65" fill="none" stroke="#E94B24" stroke-width="0.4127" stroke-linecap="round" stroke-linejoin="bevel" stroke-miterlimit="10" d="
			M18.158,76.312c-0.502,4.707,2.768,13.402,7.242,15.889"/>
		
			<path opacity="0.65" fill="none" stroke="#E94B24" stroke-width="0.4127" stroke-linecap="round" stroke-linejoin="bevel" stroke-miterlimit="10" d="
			M15.924,75.505c-0.5,4.707,3.098,13.941,8.99,16.867"/>
	</g>
	<path fill="#FFFFFF" d="M14.97,127.443c-0.488-0.508-1.248-2.233,0.25-2.084c0.871,0.088,1.109,2.168,0.182,2.068
		c-0.207-0.448,0.427-1.58-0.502-1.306c-0.076,0.47-0.204,0.968,0.07,1.404"/>
	<path fill="#FFFFFF" d="M18.22,128.276c0.48-0.325,2.396-0.742,2.085,0.5c-0.137,0.544-1.547,0.814-1.993,0.433
		c0.366-0.025,1.247,0.143,1.328-0.345c0.101-0.602-0.896-0.517-1.254-0.505"/>
	<g opacity="0.6">
		<path fill="#FFFFFF" d="M23.116,111.178c0,0,1.185-3.632,0.165-4.375c-1.557-1.137-4.236,1.854-4.236,1.854
			s2.108-1.722,3.528-0.873C22.573,107.785,23.167,108.643,23.116,111.178z"/>
		<path fill="#FFFFFF" d="M17.885,105.666c0,0,0.684,0.777,0.909,3.3c0,0,0.782-3.752-0.31-4.362
			c-0.064-0.036-0.133-0.066-0.199-0.092L17.885,105.666z"/>
		<path fill="#FFFFFF" d="M26.787,113.306c0,0,0.758-3.758-0.336-4.361c-1.678-0.926-3.994,2.393-3.994,2.393
			s1.896-1.983,3.402-1.328C25.859,110.009,26.546,110.784,26.787,113.306z"/>
		<path fill="#FFFFFF" d="M22.867,115.013c0,0,0.76-3.758-0.336-4.36c-1.676-0.925-3.994,2.392-3.994,2.392s1.896-1.982,3.404-1.327
			C21.941,111.717,22.628,112.492,22.867,115.013z"/>
		<path fill="#FFFFFF" d="M15.968,109.959c0.503-0.195,1.046-0.268,1.548-0.051c0,0,0.684,0.774,0.924,3.296
			c0,0,0.761-3.758-0.334-4.361c-0.566-0.312-1.207-0.14-1.807,0.226L15.968,109.959z"/>
		<path fill="#FFFFFF" d="M27.714,117.113c0,0,0.759-3.759-0.335-4.361c-1.676-0.925-3.995,2.393-3.995,2.393
			s1.896-1.983,3.403-1.327C26.787,113.817,27.473,114.59,27.714,117.113z"/>
		<path fill="#FFFFFF" d="M31.455,114.966c0,0,0.762-3.757-0.33-4.36c-1.68-0.925-3.998,2.392-3.998,2.392s1.896-1.982,3.404-1.327
			C30.531,111.67,31.217,112.445,31.455,114.966z"/>
		<path fill="#FFFFFF" d="M32.047,118.995c0,0,0.76-3.759-0.336-4.362c-1.676-0.925-3.995,2.393-3.995,2.393
			s1.896-1.984,3.403-1.327C31.119,115.698,31.805,116.472,32.047,118.995z"/>
		<path fill="#FFFFFF" d="M19.282,117.393c0,0,0.996-3.697-0.058-4.377c-1.617-1.045-4.135,2.1-4.135,2.1s2.014-1.844,3.476-1.079
			C18.565,114.037,19.203,114.859,19.282,117.393z"/>
		<path fill="#FFFFFF" d="M23.985,119.835c0,0,0.994-3.696-0.059-4.377c-1.618-1.043-4.136,2.101-4.136,2.101
			s2.014-1.844,3.477-1.079C23.268,116.48,23.904,117.301,23.985,119.835z"/>
		<path fill="#FFFFFF" d="M20.433,121.799c0,0,0.992-3.697-0.061-4.378c-1.615-1.043-4.136,2.102-4.136,2.102
			s2.016-1.845,3.479-1.079C19.715,118.444,20.35,119.264,20.433,121.799z"/>
		<path fill="#FFFFFF" d="M28.189,122.025c0,0,0.994-3.696-0.061-4.378c-1.616-1.044-4.136,2.102-4.136,2.102
			s2.015-1.845,3.478-1.08C27.471,118.668,28.107,119.491,28.189,122.025z"/>
		<path fill="#FFFFFF" d="M24.937,124.272c0,0,1.148-3.644,0.126-4.377c-1.572-1.12-4.22,1.9-4.22,1.9s2.091-1.745,3.519-0.911
			C24.361,120.884,24.962,121.736,24.937,124.272z"/>
		<path fill="#FFFFFF" d="M36.164,121.755c0,0,1.58-3.457,0.654-4.326c-1.415-1.331-4.409,1.296-4.409,1.296s2.284-1.44,3.6-0.412
			C36.009,118.313,36.498,119.243,36.164,121.755z"/>
		<path fill="#FFFFFF" d="M41.033,121.131c-0.016-0.335-0.102-0.614-0.286-0.789c-1.417-1.332-4.411,1.296-4.411,1.296
			s2.283-1.44,3.6-0.412c0,0,0.109,0.207,0.191,0.692L41.033,121.131z"/>
		<path fill="#FFFFFF" d="M40.631,120.465c0,0,1.492-3.501,0.548-4.344c-1.452-1.288-4.38,1.425-4.38,1.425s2.247-1.507,3.59-0.518
			C40.389,117.029,40.901,117.944,40.631,120.465z"/>
		<path fill="#FFFFFF" d="M35.897,117.656c0,0,1.515-3.491,0.575-4.339c-1.443-1.301-4.387,1.39-4.387,1.39s2.254-1.486,3.59-0.49
			C35.676,114.216,36.184,115.135,35.897,117.656z"/>
		<path fill="#FFFFFF" d="M26.924,105.46c0,0,1.021-3.687-0.026-4.379c-1.606-1.058-4.149,2.062-4.149,2.062
			s2.028-1.824,3.486-1.047C26.234,102.097,26.862,102.925,26.924,105.46z"/>
		<path fill="#FFFFFF" d="M22.316,98.939c1.125,0.54,0.551,4.335,0.551,4.335c-0.365-2.504-1.09-3.238-1.09-3.238
			s-0.293-0.303-0.682,0.001l0.956-1.245L22.316,98.939z"/>
		<path fill="#FFFFFF" d="M30.624,107.813c0,0,0.835-3.739-0.248-4.367c-1.658-0.965-4.042,2.299-4.042,2.299
			s1.936-1.939,3.429-1.248C29.763,104.497,30.434,105.286,30.624,107.813z"/>
		<path fill="#FFFFFF" d="M35.256,109.583c0,0,0.838-3.739-0.242-4.368c-1.66-0.964-4.043,2.3-4.043,2.3s1.934-1.939,3.428-1.249
			C34.398,106.265,35.068,107.056,35.256,109.583z"/>
		<path fill="#FFFFFF" d="M44.109,115.424c0,0,1.857-3.298,1.006-4.251c-1.301-1.46-4.496,0.879-4.496,0.879
			s2.391-1.222,3.617-0.075C44.236,111.977,44.649,112.951,44.109,115.424z"/>
		<path fill="#FFFFFF" d="M44.439,118.003c0.433-1.026,0.84-2.351,0.35-2.899c-1.303-1.459-4.496,0.88-4.496,0.88
			s2.391-1.223,3.617-0.076c0,0,0.312,0.735,0.039,2.55L44.439,118.003z"/>
		<path fill="#FFFFFF" d="M39.642,112.374c0,0,1.585-3.455,0.662-4.325c-1.417-1.333-4.412,1.289-4.412,1.289s2.284-1.435,3.6-0.407
			C39.491,108.93,39.98,109.861,39.642,112.374z"/>
		<path fill="#FFFFFF" d="M31.33,104.249c0,0,1.256-3.605,0.252-4.372c-1.535-1.174-4.271,1.756-4.271,1.756
			s2.141-1.673,3.545-0.791C30.855,100.841,31.432,101.714,31.33,104.249z"/>
		<path fill="#FFFFFF" d="M27.328,101.665c0,0,0.918-3.72-0.153-4.374c-1.636-1.005-4.089,2.199-4.089,2.199s1.975-1.89,3.455-1.164
			C26.541,98.326,27.193,99.133,27.328,101.665z"/>
		<path fill="#FFFFFF" d="M35.42,106.159c0,0,0.836-3.74-0.248-4.369c-1.658-0.963-4.041,2.3-4.041,2.3s1.935-1.938,3.428-1.248
			C34.559,102.841,35.23,103.63,35.42,106.159z"/>
		<path fill="#FFFFFF" d="M39.533,108.263c0,0,1.158-3.642,0.138-4.376c-1.567-1.126-4.224,1.889-4.224,1.889
			s2.093-1.739,3.521-0.903C38.969,104.873,39.564,105.727,39.533,108.263z"/>
		<path fill="#FFFFFF" d="M44.117,111.188c0,0,1.586-3.456,0.662-4.325c-1.418-1.333-4.412,1.289-4.412,1.289s2.285-1.436,3.6-0.408
			C43.967,107.744,44.455,108.675,44.117,111.188z"/>
		<path fill="#FFFFFF" d="M48.145,114.552c0,0,1.838-3.31,0.982-4.257c-1.311-1.451-4.491,0.906-4.491,0.906
			s2.382-1.234,3.614-0.098C48.25,111.104,48.67,112.076,48.145,114.552z"/>
		<path fill="#FFFFFF" d="M32.872,99.97c0,0,1.255-3.605,0.253-4.372c-1.534-1.174-4.27,1.756-4.27,1.756s2.141-1.673,3.543-0.792
			C32.398,96.562,32.975,97.435,32.872,99.97z"/>
		<path fill="#FFFFFF" d="M26.523,94.256c0.465-0.073,0.937-0.033,1.347,0.224c0,0,0.575,0.874,0.476,3.408
			c0,0,1.256-3.605,0.252-4.372c-0.246-0.188-0.523-0.271-0.814-0.276L26.523,94.256z"/>
		<path fill="#FFFFFF" d="M36.535,102.62c0,0,1.635-3.43,0.721-4.314c-1.398-1.357-4.428,1.218-4.428,1.218s2.305-1.398,3.602-0.35
			C36.43,99.173,36.907,100.111,36.535,102.62z"/>
		<path fill="#FFFFFF" d="M40.971,105c0,0,1.248-3.607,0.244-4.37c-1.539-1.171-4.27,1.767-4.27,1.767s2.137-1.679,3.543-0.802
			C40.488,101.594,41.065,102.465,40.971,105z"/>
		<path fill="#FFFFFF" d="M44.881,107.518c0,0,1.586-3.456,0.662-4.325c-1.416-1.333-4.411,1.289-4.411,1.289
			s2.283-1.436,3.599-0.408C44.73,104.074,45.219,105.005,44.881,107.518z"/>
		<path fill="#FFFFFF" d="M49.205,110.714c0,0,1.516-3.489,0.576-4.338c-1.443-1.301-4.385,1.387-4.385,1.387
			s2.256-1.485,3.588-0.488C48.984,107.275,49.495,108.196,49.205,110.714z"/>
		<path fill="#FFFFFF" d="M37.25,98.345c0,0,1.255-3.604,0.253-4.372c-1.536-1.173-4.271,1.756-4.271,1.756s2.14-1.672,3.546-0.791
			C36.777,94.938,37.352,95.81,37.25,98.345z"/>
		<path fill="#FFFFFF" d="M32.877,96.11c0,0,1.257-3.605,0.254-4.372c-1.535-1.173-4.27,1.756-4.27,1.756s2.14-1.673,3.541-0.792
			C32.402,92.702,32.979,93.576,32.877,96.11z"/>
		<path fill="#FFFFFF" d="M41.139,101.005c0,0,1.632-3.429,0.719-4.314c-1.398-1.356-4.428,1.218-4.428,1.218
			s2.305-1.399,3.602-0.351C41.031,97.558,41.509,98.497,41.139,101.005z"/>
		<path fill="#FFFFFF" d="M45.428,103.219c0,0,1.247-3.608,0.246-4.371c-1.539-1.172-4.269,1.767-4.269,1.767
			s2.138-1.679,3.542-0.802C44.947,99.813,45.523,100.683,45.428,103.219z"/>
		<path fill="#FFFFFF" d="M49.255,105.974c0,0,1.587-3.455,0.661-4.324c-1.416-1.335-4.412,1.288-4.412,1.288s2.285-1.435,3.6-0.408
			C49.104,102.53,49.593,103.461,49.255,105.974z"/>
		<path fill="#FFFFFF" d="M52.74,109.338c0,0,1.836-3.31,0.982-4.257c-1.311-1.451-4.492,0.906-4.492,0.906s2.384-1.234,3.615-0.099
			C52.846,105.889,53.265,106.862,52.74,109.338z"/>
		<path fill="#FFFFFF" d="M38.355,94.452c0,0,1.255-3.604,0.254-4.371c-1.535-1.174-4.271,1.755-4.271,1.755
			s2.142-1.672,3.545-0.792C37.883,91.043,38.458,91.917,38.355,94.452z"/>
		<path fill="#FFFFFF" d="M32.621,89.334c0.207,0.037,0.406,0.109,0.592,0.226c0,0,0.576,0.873,0.476,3.408
			c0,0,1.255-3.606,0.253-4.371L32.621,89.334z"/>
		<path fill="#FFFFFF" d="M42.02,97.102c0,0,1.633-3.43,0.721-4.315c-1.399-1.355-4.428,1.219-4.428,1.219s2.303-1.399,3.6-0.351
			C41.912,93.655,42.391,94.593,42.02,97.102z"/>
		<path fill="#FFFFFF" d="M46.309,99.315c0,0,1.247-3.607,0.247-4.371c-1.54-1.171-4.269,1.768-4.269,1.768s2.137-1.679,3.541-0.803
			C45.828,95.909,46.404,96.78,46.309,99.315z"/>
		<path fill="#FFFFFF" d="M50.363,102c0,0,1.586-3.456,0.662-4.325c-1.416-1.333-4.41,1.289-4.41,1.289s2.283-1.436,3.6-0.408
			C50.215,98.556,50.703,99.488,50.363,102z"/>
		<path fill="#FFFFFF" d="M53.845,105.525c0,0,1.836-3.311,0.982-4.257c-1.312-1.451-4.493,0.906-4.493,0.906
			s2.383-1.234,3.617-0.098C53.951,102.077,54.369,103.048,53.845,105.525z"/>
		<path fill="#FFFFFF" d="M42.562,92.846c0,0,1.393-3.547,0.422-4.357c-1.488-1.242-4.334,1.562-4.334,1.562
			s2.202-1.575,3.568-0.632C42.219,89.419,42.76,90.318,42.562,92.846z"/>
		<path fill="#FFFFFF" d="M35.867,86.969c0.637-0.182,1.344-0.223,1.909,0.166c0,0,0.541,0.899,0.342,3.428
			c0,0,1.396-3.546,0.423-4.356c-0.395-0.331-0.887-0.375-1.394-0.262L35.867,86.969z"/>
		<path fill="#FFFFFF" d="M46.117,95.66c0,0,1.762-3.354,0.887-4.28c-1.342-1.418-4.47,1.019-4.47,1.019s2.354-1.295,3.61-0.188
			C46.145,92.209,46.584,93.168,46.117,95.66z"/>
		<path fill="#FFFFFF" d="M50.316,98.063c0,0,1.384-3.55,0.414-4.357c-1.492-1.24-4.332,1.575-4.332,1.575s2.199-1.583,3.569-0.643
			C49.968,94.638,50.51,95.534,50.316,98.063z"/>
		<path fill="#FFFFFF" d="M54.261,100.928c0,0,1.72-3.383,0.829-4.293c-1.364-1.396-4.457,1.091-4.457,1.091
			s2.338-1.332,3.612-0.246C54.245,97.48,54.697,98.432,54.261,100.928z"/>
		<path fill="#FFFFFF" d="M57.14,104.342c0,0,1.913-3.249,1.193-4.188c-1.106-1.441-4.188,0.859-4.188,0.859
			s2.272-1.198,3.328-0.069C57.474,100.944,57.791,101.905,57.14,104.342z"/>
		<path fill="#FFFFFF" d="M47.668,87.947c0,0,1.392-3.547,0.421-4.358c-1.487-1.241-4.333,1.563-4.333,1.563s2.201-1.576,3.57-0.633
			C47.326,84.519,47.866,85.418,47.668,87.947z"/>
		<path fill="#FFFFFF" d="M42.379,81.314c0.347,0.008,0.686,0.095,0.982,0.3c0,0,0.542,0.899,0.342,3.428
			c0,0,1.395-3.548,0.423-4.357c-0.206-0.171-0.435-0.265-0.679-0.3L42.379,81.314z"/>
		<path fill="#FFFFFF" d="M51.838,90.405c0,0,1.129-3.651,0.1-4.378c-1.572-1.112-4.207,1.924-4.207,1.924s2.082-1.757,3.514-0.932
			C51.244,87.019,51.85,87.868,51.838,90.405z"/>
		<path fill="#FFFFFF" d="M55.705,92.961c0,0,1.385-3.55,0.414-4.357c-1.491-1.24-4.332,1.575-4.332,1.575s2.199-1.583,3.569-0.644
			C55.356,89.536,55.9,90.432,55.705,92.961z"/>
		<path fill="#FFFFFF" d="M59.419,95.976c0,0,1.719-3.382,0.831-4.292c-1.364-1.396-4.456,1.09-4.456,1.09s2.335-1.332,3.608-0.246
			C59.402,92.528,59.856,93.481,59.419,95.976z"/>
		<path fill="#FFFFFF" d="M62.562,99.375c0,0,1.964-3.225,1.148-4.21c-1.255-1.509-4.522,0.705-4.522,0.705s2.427-1.127,3.617,0.064
			C62.805,95.934,63.184,96.924,62.562,99.375z"/>
		<path fill="#FFFFFF" d="M48.812,76.557c1.022,0.732-0.123,4.379-0.123,4.379c0.025-2.537-0.576-3.391-0.576-3.391
			s-0.681-0.325-1.205-0.349l0.706-0.693C47.614,76.503,48.444,76.3,48.812,76.557"/>
		<path fill="#FFFFFF" d="M52.861,83.88c0,0,1.529-3.482,0.592-4.337c-1.438-1.307-4.391,1.368-4.391,1.368s2.262-1.477,3.59-0.473
			C52.652,80.439,53.158,81.361,52.861,83.88z"/>
		<path fill="#FFFFFF" d="M57.279,86.27c0,0,1.139-3.648,0.113-4.377c-1.572-1.118-4.215,1.912-4.215,1.912s2.087-1.752,3.519-0.923
			C56.696,82.882,57.297,83.733,57.279,86.27z"/>
		<path fill="#FFFFFF" d="M61.195,89.057c0,0,1.312-3.583,0.324-4.366c-1.52-1.202-4.299,1.677-4.299,1.677s2.165-1.633,3.555-0.727
			C60.775,85.641,61.338,86.525,61.195,89.057z"/>
		<path fill="#FFFFFF" d="M65.24,91.832c0,0,1.271-3.599,0.275-4.371c-1.529-1.182-4.28,1.731-4.28,1.731s2.146-1.659,3.548-0.771
			C64.783,88.42,65.355,89.297,65.24,91.832z"/>
		<path fill="#FFFFFF" d="M52.729,79.294c0,0,1.147-3.646,0.124-4.377c-1.57-1.121-4.217,1.899-4.217,1.899s2.088-1.745,3.518-0.912
			C52.154,75.905,52.755,76.758,52.729,79.294z"/>
		<path fill="#FFFFFF" d="M56.471,81.818c0,0,1.529-3.483,0.593-4.337c-1.44-1.308-4.392,1.368-4.392,1.368s2.262-1.477,3.589-0.473
			C56.261,78.376,56.768,79.298,56.471,81.818z"/>
		<path fill="#FFFFFF" d="M60.826,83.882c0,0,1.14-3.647,0.114-4.377c-1.573-1.118-4.215,1.913-4.215,1.913s2.087-1.753,3.517-0.924
			C60.242,80.495,60.846,81.346,60.826,83.882z"/>
		<path fill="#FFFFFF" d="M64.539,87.076c0,0,1.482-3.507,0.534-4.344c-1.457-1.285-4.372,1.438-4.372,1.438s2.24-1.512,3.585-0.53
			C64.286,83.639,64.803,84.553,64.539,87.076z"/>
		<path fill="#FFFFFF" d="M68.209,86.443c-1.27-1.094-3.354,0.318-3.354,0.318s2.611-2.203,3.859-1.584L68.209,86.443z"/>
		<path fill="#FFFFFF" d="M51.941,72.151c0,0,0.648,0.813,0.768,3.345c0,0,0.939-3.712-0.125-4.375L51.941,72.151z"/>
		<path fill="#FFFFFF" d="M56.648,78.018c0,0,1.334-3.575,0.347-4.367c-1.509-1.211-4.308,1.65-4.308,1.65s2.175-1.62,3.557-0.704
			C56.244,74.597,56.803,75.484,56.648,78.018z"/>
		<path fill="#FFFFFF" d="M61.113,79.796c0,0,0.934-3.714-0.131-4.375c-1.635-1.014-4.101,2.18-4.101,2.18s1.983-1.883,3.458-1.147
			C60.34,76.454,60.992,77.263,61.113,79.796z"/>
		<path fill="#FFFFFF" d="M65.245,82.352c0,0,1.282-3.597,0.288-4.369c-1.527-1.189-4.285,1.716-4.285,1.716s2.152-1.653,3.549-0.76
			C64.797,78.939,65.366,79.818,65.245,82.352z"/>
		<path fill="#FFFFFF" d="M69.159,81.978c-1.327-1.011-3.858,0.431-3.858,0.431s2.855-2.935,4.289-1.62L69.159,81.978z"/>
		<path fill="#FFFFFF" d="M57.016,73.63c0,0,0.855-3.735-0.225-4.371c-1.652-0.974-4.055,2.276-4.055,2.276s1.944-1.928,3.437-1.229
			C56.173,70.306,56.841,71.102,57.016,73.63z"/>
		<path fill="#FFFFFF" d="M61.33,75.43c0,0,0.746-3.762-0.352-4.361c-1.682-0.916-3.984,2.41-3.984,2.41s1.885-1.991,3.395-1.343
			C60.389,72.136,61.079,72.908,61.33,75.43z"/>
		<path fill="#FFFFFF" d="M65.764,77.768c0,0,0.845-3.736-0.234-4.37c-1.656-0.971-4.051,2.286-4.051,2.286s1.943-1.934,3.434-1.238
			C64.912,74.446,65.58,75.239,65.764,77.768z"/>
		<path fill="#FFFFFF" d="M69.777,80.206c0,0,1.201-3.627,0.189-4.374c-1.554-1.148-4.244,1.827-4.244,1.827
			s2.113-1.709,3.529-0.853C69.252,76.806,69.842,77.669,69.777,80.206z"/>
		<path fill="#FFFFFF" d="M54.791,66.604c0.377-0.143,0.775-0.194,1.168-0.079c0,0,0.77,0.684,1.283,3.156
			c0,0,0.346-3.824-0.811-4.287c-0.518-0.207-1.049-0.047-1.544,0.283L54.791,66.604z"/>
		<path fill="#FFFFFF" d="M61.484,71.457c0,0,0.645-3.782-0.468-4.348c-1.705-0.864-3.921,2.532-3.921,2.532
			s1.834-2.049,3.359-1.447C60.455,68.194,61.168,68.943,61.484,71.457z"/>
		<path fill="#FFFFFF" d="M65.67,73.458c0,0,0.684-3.774-0.424-4.353c-1.695-0.886-3.945,2.486-3.945,2.486s1.854-2.029,3.376-1.408
			C64.677,70.184,65.378,70.941,65.67,73.458z"/>
		<path fill="#FFFFFF" d="M70.398,75.225c0,0,0.428-3.818-0.713-4.307c-1.754-0.753-3.771,2.781-3.771,2.781
			s1.714-2.163,3.273-1.663C69.188,72.037,69.94,72.739,70.398,75.225z"/>
		<path fill="#FFFFFF" d="M61.148,67.175c0,0-0.059-3.838-1.257-4.157c-1.831-0.489-3.385,3.302-3.385,3.302
			s1.423-2.392,3.037-2.123C59.544,64.197,60.378,64.783,61.148,67.175z"/>
		<path fill="#FFFFFF" d="M65.3,68.899c0,0,0.321-3.827-0.833-4.281c-1.772-0.696-3.692,2.9-3.692,2.9s1.651-2.218,3.223-1.767
			C63.997,65.751,64.771,66.428,65.3,68.899z"/>
		<path fill="#FFFFFF" d="M69.749,70.649c0,0,0.476-3.81-0.663-4.316c-1.742-0.776-3.803,2.732-3.803,2.732s1.74-2.144,3.291-1.621
			C68.574,67.444,69.319,68.156,69.749,70.649z"/>
		<path fill="#FFFFFF" d="M59.609,63.314c0,0-0.65-3.771-1.876-3.876c-1.888-0.158-2.839,3.852-2.839,3.852s1.041-2.608,2.672-2.627
			C57.566,60.663,58.482,61.091,59.609,63.314z"/>
		<path fill="#FFFFFF" d="M64.211,64.374c0,0-0.164-3.837-1.369-4.119c-1.846-0.43-3.293,3.407-3.293,3.407s1.357-2.434,2.972-2.216
			C62.521,61.446,63.375,62.004,64.211,64.374z"/>
		<path fill="#FFFFFF" d="M68.764,65.554c0,0,0.123-3.838-1.055-4.223c-1.809-0.589-3.538,3.116-3.538,3.116
			s1.537-2.313,3.131-1.957C67.302,62.491,68.107,63.121,68.764,65.554z"/>
		<path fill="#FFFFFF" d="M70.734,63.931c-1.105,0.5-1.969,1.801-1.969,1.801s0.828-1.773,1.938-2.671L70.734,63.931z"/>
		<path fill="#FFFFFF" d="M55.797,57.391c0.174-0.065,0.358-0.104,0.551-0.107c0,0,0.867,0.383,1.947,2.372
			c0,0-0.635-3.376-1.797-3.468c-0.191-0.015-0.369,0.012-0.539,0.073L55.797,57.391z"/>
		<path fill="#FFFFFF" d="M60.936,57.082c0,0-0.587-3.387-1.748-3.498c-1.78-0.17-2.711,3.406-2.711,3.406s1.004-2.32,2.547-2.313
			C59.023,54.676,59.885,55.075,60.936,57.082z"/>
		<path fill="#FFFFFF" d="M55.973,52.916c0.248-0.339,0.566-0.621,0.971-0.738c0,0,0.871,0.131,2.28,1.66
			c0,0-1.306-2.895-2.38-2.688c-0.388,0.075-0.685,0.323-0.912,0.66L55.973,52.916z"/>
		<path fill="#FFFFFF" d="M63.651,53.272c0,0-1.012-3.104-2.227-2.944c-1.86,0.248-2.396,3.882-2.396,3.882s0.759-2.448,2.357-2.798
			C61.387,51.412,62.326,51.594,63.651,53.272z"/>
		<path fill="#FFFFFF" d="M68.217,52.807c0,0-1.314-2.969-2.506-2.67c-1.828,0.461-1.996,4.134-1.996,4.134s0.511-2.521,2.065-3.051
			C65.78,51.22,66.735,51.293,68.217,52.807z"/>
		<path fill="#FFFFFF" d="M61.034,50.469c0,0-1.087-2.999-2.171-2.885c-1.668,0.177-1.949,3.632-1.949,3.632
			s0.551-2.316,1.973-2.597C58.887,48.62,59.742,48.824,61.034,50.469z"/>
		<path fill="#FFFFFF" d="M65.33,49.42c0,0-1.312-2.97-2.504-2.671c-1.829,0.458-2.002,4.13-2.002,4.13s0.516-2.521,2.069-3.048
			C62.894,47.832,63.847,47.905,65.33,49.42z"/>
		<path fill="#FFFFFF" d="M67.203,47.418c-1.543,0.571-1.998,3.104-1.998,3.104s-0.188-3.405,1.629-3.916L67.203,47.418z"/>
		<path fill="#FFFFFF" d="M55.033,48.414c1.434-0.02,1.928,2.729,1.928,2.729c-0.854-1.553-1.746-1.754-1.746-1.754L55.033,48.414"
			/>
		<path fill="#FFFFFF" d="M62.723,46.399c0,0-1.629-2.701-2.67-2.355c-1.603,0.531-1.23,3.972-1.23,3.972s0.105-2.384,1.448-2.966
			C60.271,45.049,61.149,45.066,62.723,46.399z"/>
		<path fill="#FFFFFF" d="M67.023,45.509c0,0-1.275-2.743-2.385-2.44c-1.699,0.467-1.807,3.896-1.807,3.896s0.441-2.361,1.887-2.888
			C64.719,44.078,65.612,44.126,67.023,45.509z"/>
		<path fill="#FFFFFF" d="M58.836,47.291c0,0-1.574-2.807-2.627-2.514c-1.615,0.449-1.316,3.934-1.316,3.934
			s0.158-2.394,1.514-2.908C56.406,45.802,57.287,45.864,58.836,47.291z"/>
		<path fill="#FFFFFF" d="M62.955,43.503c0,0-1.219-2.564-2.158-2.348c-1.445,0.337-1.383,3.452-1.383,3.452
			s0.275-2.127,1.495-2.529C60.909,42.079,61.68,42.17,62.955,43.503z"/>
		<path fill="#FFFFFF" d="M64.377,41.101c-0.779,0.609-1.177,2.766-1.177,2.766s-0.438-1.952,0.908-3.502L64.377,41.101z"/>
		<path fill="#FFFFFF" d="M59.446,44.309c0,0-1.335-2.552-2.269-2.308c-1.431,0.376-1.229,3.517-1.229,3.517s0.18-2.153,1.386-2.591
			C57.335,42.927,58.107,43,59.446,44.309z"/>
		<path fill="#FFFFFF" d="M60.215,40.981c0,0-1.397-2.289-2.214-1.962c-1.257,0.504-0.827,3.464-0.827,3.464
			s-0.008-2.061,1.037-2.601C58.211,39.882,58.912,39.872,60.215,40.981z"/>
		<path fill="#FFFFFF" d="M63.68,39.861c0,0-1.053-2.341-1.932-2.055c-1.346,0.441-1.383,3.409-1.383,3.409s0.318-2.051,1.461-2.54
			C61.826,38.675,62.537,38.698,63.68,39.861z"/>
		<path fill="#FFFFFF" d="M56.927,42.341c0,0-1.368-2.326-2.151-2.071c-1.204,0.395-0.763,3.298-0.763,3.298s-0.025-2,0.976-2.443
			C54.988,41.124,55.663,41.166,56.927,42.341z"/>
		<path fill="#FFFFFF" d="M58.393,36.429c0,0-1.263-1.885-1.974-1.6c-1.092,0.44-0.666,2.9-0.666,2.9s-0.042-1.717,0.865-2.184
			C56.618,35.546,57.233,35.526,58.393,36.429z"/>
		<path fill="#FFFFFF" d="M61.103,35.371c0,0-1.144-1.843-1.881-1.525c-1.129,0.489-0.877,2.951-0.877,2.951
			s0.079-1.728,1.028-2.239C59.373,34.559,59.994,34.513,61.103,35.371z"/>
		<path fill="#FFFFFF" d="M55.402,37.707c0,0-1.377-1.829-2.042-1.559c-1.02,0.417-0.405,2.794-0.405,2.794
			s-0.181-1.659,0.658-2.102C53.613,36.841,54.206,36.825,55.402,37.707z"/>
		<path fill="#FFFFFF" d="M61.418,37.806c0,0-1.533-2.199-2.329-1.823c-1.224,0.581-0.615,3.508-0.615,3.508
			s-0.132-2.056,0.878-2.659C59.352,36.831,60.051,36.778,61.418,37.806z"/>
		<path fill="#FFFFFF" d="M58.074,39.326c0,0-1.368-2.326-2.151-2.071c-1.204,0.395-0.763,3.298-0.763,3.298s-0.025-2,0.976-2.443
			C56.136,38.109,56.811,38.151,58.074,39.326z"/>
		<path fill="#FFFFFF" d="M65.463,56.993c0,0-0.586-3.388-1.746-3.498c-1.781-0.169-2.713,3.407-2.713,3.407s1.007-2.32,2.547-2.313
			C63.551,54.588,64.412,54.987,65.463,56.993z"/>
		<path fill="#FFFFFF" d="M69.717,57.782c0,0-0.393-3.422-1.544-3.608c-1.767-0.284-2.899,3.226-2.899,3.226
			s1.133-2.252,2.671-2.144C67.944,55.255,68.783,55.709,69.717,57.782z"/>
		<path fill="#FFFFFF" d="M62.835,60.083c0,0-0.439-3.408-1.597-3.562c-1.771-0.233-2.85,3.305-2.85,3.305s1.098-2.279,2.635-2.217
			C61.023,57.609,61.873,58.037,62.835,60.083z"/>
		<path fill="#FFFFFF" d="M67.293,60.708c0,0-0.322-3.42-1.473-3.613c-1.764-0.298-2.963,3.204-2.963,3.204s1.178-2.243,2.715-2.126
			C65.572,58.172,66.4,58.629,67.293,60.708z"/>
		<path fill="#FFFFFF" d="M70.008,59.098c-1.524-0.206-2.817,1.968-2.817,1.968s1.159-2.959,2.739-3.048L70.008,59.098z"/>
		<path fill="#FFFFFF" d="M52.315,87.306c0,0,1.395-3.546,0.423-4.357c-1.488-1.242-4.334,1.563-4.334,1.563
			s2.203-1.576,3.568-0.633C51.973,83.879,52.578,84.524,52.315,87.306z"/>
		<path fill="#FFFFFF" d="M48.387,84.598c0,0,1.396-3.547,0.424-4.357c-1.486-1.241-4.334,1.562-4.334,1.562s2.201-1.575,3.57-0.633
			C48.047,81.17,48.586,82.07,48.387,84.598z"/>
		<path fill="#FFFFFF" d="M56.487,89.283c0,0,1.056-3.677,0.013-4.379c-1.598-1.075-4.168,2.019-4.168,2.019
			s2.048-1.804,3.493-1.012C55.825,85.911,56.483,86.292,56.487,89.283z"/>
		<path fill="#FFFFFF" d="M60.631,91.992c0,0,1.212-3.622,0.201-4.373c-1.551-1.153-4.25,1.816-4.25,1.816s2.119-1.704,3.533-0.844
			C60.115,88.591,60.7,89.457,60.631,91.992z"/>
		<path fill="#FFFFFF" d="M64.375,93.721c0.053-1.299-0.199-1.827-0.199-1.827c-1.273-1.086-3.61,0.246-3.61,0.246
			s3.094-2.487,4.458-1.09c0.234,0.239,0.285,0.651,0.238,1.127L64.375,93.721z"/>
		<path fill="#FFFFFF" d="M47.172,91.712c0,0,1.393-3.547,0.422-4.357c-1.488-1.242-4.334,1.563-4.334,1.563
			s2.201-1.576,3.569-0.633C46.829,88.286,47.372,89.184,47.172,91.712z"/>
		<path fill="#FFFFFF" d="M43.275,88.971c0,0,1.395-3.548,0.422-4.357c-1.487-1.242-4.334,1.562-4.334,1.562s2.201-1.575,3.57-0.633
			C42.934,85.543,43.477,86.443,43.275,88.971z"/>
		<path fill="#FFFFFF" d="M50.727,94.525c0,0,1.764-3.354,0.887-4.28c-1.342-1.418-4.469,1.02-4.469,1.02s2.355-1.294,3.609-0.188
			C50.754,91.076,51.193,92.035,50.727,94.525z"/>
		<path fill="#FFFFFF" d="M54.926,96.929c0,0,1.387-3.55,0.416-4.357c-1.492-1.24-4.334,1.575-4.334,1.575s2.201-1.583,3.569-0.644
			C54.577,93.503,55.119,94.399,54.926,96.929z"/>
		<path fill="#FFFFFF" d="M58.871,99.793c0,0,1.717-3.383,0.828-4.292c-1.363-1.396-4.455,1.091-4.455,1.091s2.336-1.332,3.61-0.247
			C58.854,96.345,59.307,97.297,58.871,99.793z"/>
		<path fill="#FFFFFF" d="M22.504,107.528c0,0,0.76-3.758-0.335-4.361c-1.678-0.925-3.997,2.392-3.997,2.392
			s1.895-1.982,3.406-1.327C21.578,104.231,22.262,105.005,22.504,107.528z"/>
		<path fill="#FFFFFF" d="M26.803,109.602c0,0,0.76-3.758-0.334-4.36c-1.679-0.925-3.994,2.392-3.994,2.392s1.894-1.983,3.401-1.327
			C25.876,106.306,26.562,107.081,26.803,109.602z"/>
		<path fill="#FFFFFF" d="M31.473,111.263c0,0,0.762-3.758-0.334-4.36c-1.678-0.926-3.997,2.392-3.997,2.392
			s1.897-1.982,3.405-1.327C30.547,107.967,31.233,108.742,31.473,111.263z"/>
		<path fill="#FFFFFF" d="M35.913,113.952c0,0,1.515-3.49,0.575-4.338c-1.443-1.301-4.386,1.39-4.386,1.39s2.255-1.487,3.59-0.49
			C35.692,110.513,36.201,111.432,35.913,113.952z"/>
		<path fill="#FFFFFF" d="M40.146,116.717c0,0,1.515-3.491,0.575-4.338c-1.444-1.301-4.386,1.391-4.386,1.391
			s2.256-1.488,3.59-0.491C39.926,113.279,40.435,114.198,40.146,116.717z"/>
		<path fill="#FFFFFF" d="M55.018,46.514"/>
	</g>
	<g opacity="0.75">
		<g opacity="0.65">
			<path fill="none" stroke="#FFFFFF" stroke-width="0.5" stroke-miterlimit="10" d="M58.796,3.354c0,0-4.853,6.261-1.265,17.688
				c1.518,4.833,1.86,8.372,1.329,11.826"/>
			<path fill="none" stroke="#FFFFFF" stroke-width="0.5" stroke-miterlimit="10" d="M58.196,33.268
				c-1.834-5.095-1.567-3.734-2.924-11.295c-1.291-7.194-0.812-16.958-0.812-16.958"/>
			<path fill="none" stroke="#FFFFFF" stroke-width="0.5" stroke-miterlimit="10" d="M56.602,33.799c0,0-1.326-2.873-2.525-6.378
				c-1.413-4.13-2.823-9.642-1.993-20.064"/>
			<path fill="none" stroke="#FFFFFF" stroke-width="0.5" stroke-miterlimit="10" d="M55.937,34.198c0,0-2.719-4.722-4.865-10.792
				c-2.113-5.967-1.684-9.999-1.591-12.304"/>
			<path fill="none" stroke="#FFFFFF" stroke-width="0.5" stroke-miterlimit="10" d="M41.013,19.906
				c6.29,3.537,10.33,7.179,13.957,14.37"/>
			<path fill="none" stroke="#FFFFFF" stroke-width="0.5" stroke-miterlimit="10" d="M54.048,35.139
				c-2.488-3.606-2.23-4.795-8.476-10.376c-6.051-5.407-11.495-6.191-11.495-6.191"/>
			<path fill="none" stroke="#FFFFFF" stroke-width="0.5" stroke-miterlimit="10" d="M52.03,35.447c0,0-3.446-4.665-9.228-8.671
				c-6.12-4.243-13-6.5-13-6.5"/>
			<path fill="none" stroke="#FFFFFF" stroke-width="0.5" stroke-miterlimit="10" d="M53.262,35.359c0,0-4.234-5.919-9.948-10.064
				c-6.351-4.604-12.741-6.077-12.741-6.077"/>
		</g>
	</g>
</g>
</svg>
