<?xml version="1.0" encoding="utf-8"?>
<!-- Generator: Adobe Illustrator 15.0.0, SVG Export Plug-In  -->
<!DOCTYPE svg PUBLIC "-//W3C//DTD SVG 1.1//EN" "http://www.w3.org/Graphics/SVG/1.1/DTD/svg11.dtd" [
	<!ENTITY ns_flows "http://ns.adobe.com/Flows/1.0/">
]>
<svg version="1.1"
	 xmlns="http://www.w3.org/2000/svg" xmlns:xlink="http://www.w3.org/1999/xlink" xmlns:a="http://ns.adobe.com/AdobeSVGViewerExtensions/3.0/"
	 x="0px" y="0px" width="336px" height="116px" viewBox="-0.272 -0.149 336 116"
	 overflow="visible" enable-background="new -0.272 -0.149 336 116" xml:space="preserve">
<defs>
</defs>
<path fill="#DEC59C" d="M273.228,106.204c-21.32,17.611-45.421,5.252-45.421,5.252c-5.522-2.289-13.181-7.18-20.392-11.432
	c-10.119-5.967-16.996-11.433-16.996-11.433c-16.141-13.729-28.736-14.832-28.736-14.832c-14.83-1.545-26.281,6.402-26.281,6.402
	c-8.961,5.562-25.027,16.995-25.027,16.995c-16.994,10.196-37.078,0.927-37.078,0.927c-18.848-8.034-11.123-21.63-11.123-21.63
	c-8.033,3.708-16.067,0.619-16.067,0.619c-9.27-3.4-11.433-12.669-11.433-12.669c-5.562,2.472-14.213,2.473-14.213,2.473
	C1.611,65.332,0.375,50.19,0.375,50.19C-2.714,35.977,14.28,30.415,14.28,30.415s-3.703-10.178,6.798-16.375
	c0,0,9.887-4.636,17.921,0c0,0,2.472-9.579,13.595-12.36c0,0,12.051-3.707,19.774,4.326c0,0,11.123-10.196,24.719-4.018
	c0,0,12.669,3.09,13.905,20.702c0,0,25.027,0.618,27.809,17.921c0,0,4.634,18.54-15.759,25.028c0,0-10.196,2.781-17.303-4.017
	c0,0-5.562,7.106,4.943,10.506c0,0,7.725,2.473,22.557-8.343c0,0,12.068-9.801,26.899-7.639c0,0,10.814-0.001,25.955,13.904
	c6.827,6.27,20.392,15.449,35.842,21.011c0,0,23.308,6.896,29.759-1.864c0,0,1.054-1.892-0.398-3.744
	c-0.646-0.823-2.889-1.252-4.938-0.558c0,0-1.867,0.604-6.502,3.076c0,0-11.123,6.18-17.611-2.163c0,0-7.107-9.578,5.252-18.848
	c0,0,6.798-5.253,14.523-4.943c0,0-4.018-11.742,11.74-16.377c0,0,12.36-5.252,21.32,4.326c0,0,11.432-9.579,25.027-5.562
	c0,0,13.904,2.163,15.141,17.921c0,0,16.994-2.163,19.466,9.579c0,0,3.399,15.449-19.157,17.303c0,0-1.854,13.596-15.449,18.848
	c0,0-11.432,5.562-20.084,2.472C274.943,108.712,273.228,106.204,273.228,106.204z"/>
<path fill="#FFFFFF" d="M50.607,43.068c0,0,2.965-0.147,2.965,3.114c0,0-1.186,4.3-5.189,1.187c0,0-3.114-2.669-0.742-8.006
	c0,0,2.817-6.375,12.157-4.894c0,0,9.044,0,9.192,11.861c0,0-1.187,10.823-12.899,11.713c0,0-12.157,2.371-18.829-6.672
	c0,0-3.117-3.067-3.559-8.304c-0.272-3.236,0.095-7.576,4.003-11.711c0,0,11.86-14.233,30.986-3.855c0,0,13.64-6.523,21.794,2.372
	c0,0,10.675,12.157-1.631,24.76c0,0-4.447,3.706-10.229,4.744c0,0-5.93,11.86-18.829,16.604c0,0-6.968,2.225-13.936-1.037
	c0,0-7.709-2.817-9.933-12.603c0,0-10.527,5.634-22.98,1.483c0,0-11.712-4.448-11.712-18.088c0,0,0.89-10.823,14.529-13.937
	c0,0-4.448-10.972,7.413-16.754c0,0,7.561-3.409,16.16,1.187c0,0,2.372-11.416,15.271-13.937c0,0,10.971-1.927,18.088,5.485
	c0,0,9.636-8.303,19.569-5.93c0,0,10.378,1.187,15.271,12.602c0,0,1.334,2.521,1.928,9.785c0,0,14.084-0.593,22.09,6.82
	c0,0,8.6,5.337,5.189,20.46c0,0-4.744,14.529-20.607,12.75c0,0-14.53-1.779-13.195-13.641c0,0,0.445-7.265,7.265-7.709
	c0,0,5.337-0.89,5.634,3.114c0,0,0,3.113-3.113,2.816c0,0-1.631-0.742-2.372-2.076c0,0-4.448,0-4.3,4.893
	c0,0-0.89,9.785,11.564,10.082c0,0,17.939-0.741,17.346-17.05c0,0-0.296-12.751-13.64-16.605c0,0-8.599-1.928-14.381-1.334
	c0,0-0.297-16.753-9.934-21.201c0,0-11.86-6.819-24.462,6.82c0,0-8.451-10.526-19.274-6.969c0,0-7.858,1.335-11.712,13.641
	c0,0-10.971-5.189-18.087-1.334c0,0-7.117,2.371-5.337,15.863c0,0-13.195,1.928-14.085,13.64c0,0-1.334,11.268,12.602,15.715
	c0,0,9.786,2.225,21.646-3.854c0,0-1.038,11.268,10.23,14.085c0,0,18.532,4.447,27.428-16.161c0,0,15.864-2.371,15.122-17.494
	c0,0-0.74-9.488-10.674-11.119c0,0-5.634-0.89-11.861,3.262c0,0-10.082-8.006-21.053-3.41c0,0-11.86,5.338-9.192,17.05
	c0,0,3.262,9.934,14.53,10.082c0,0,12.453-0.297,12.75-10.378c0,0-0.297-8.896-9.192-7.71
	C56.389,37.287,51.645,37.435,50.607,43.068z"/>
<path fill="#FFFFFF" d="M104.425,60.564c0,0-0.89-3.56-2.965-0.89c0,0-6.228,10.377,4.744,14.825c0,0,11.268,5.634,24.907-4.448
	c0,0,10.858-7.877,19.686-9.289c7.413-1.187,16.308-0.297,24.907,5.634c8.6,5.93,21.943,17.198,34.693,23.129
	c12.75,5.93,27.576,11.86,40.623,5.93c0,0,10.55-4.903,5.04-12.751c0,0-3.649-4.656-11.563-1.186
	c-7.417,3.253-13.344,6.523-17.791,3.262c-3.556-2.607-2.966-10.675,2.965-14.529c6.906-4.49,12.453-4.448,16.012-4.744
	c0,0-3.559-9.489,5.041-14.233c0,0,11.86-5.93,21.646,0.297l1.482-0.594c0,0-4.744-7.412-18.681-4.15c0,0-13.936,3.262-11.86,16.309
	c0,0-7.073,0.634-13.157,4.294c-4.111,2.474-8.256,6.259-8.488,12.311c0,0-0.184,3.072,2.152,5.636
	c1.402,1.538,3.258,3.032,7.088,3.186c0,0,4.939,0.478,13.295-4.373c0,0,5.691-3.503,8.599,0.89c0,0,4.604,7.062-8.739,10.322
	c0,0-15.871,2.131-35.145-8.544c-19.274-10.674-20.757-14.232-27.576-18.977c0,0-14.529-10.972-23.426-10.378
	c0,0-3.97-3.757-17.906,4.249c0,0-13.64,8.896-17.494,10.378c0,0-13.641,5.634-18.681-3.261
	C103.832,68.867,101.756,65.307,104.425,60.564z"/>
<path fill="#FFFFFF" d="M312.056,85.495c-2.279,14.655-15.633,19.378-15.633,19.378c-11.398,4.396-17.912-1.14-17.912-1.14
	c-6.677-6.84-0.814-14.655-0.814-14.655c6.678-8.143,15.471-4.56,15.471-4.56c5.048,2.604,2.768,7.979,2.768,7.979
	c-1.628-0.488-2.605-0.163-2.605-0.163c-2.279,0-2.279,1.955-2.279,1.955c0.651,3.419,5.211,1.302,5.211,1.302
	c3.582-1.629,3.42-5.861,3.42-5.861c-0.652-7.165-6.025-7.979-6.025-7.979c-8.957-3.094-17.75,5.373-17.75,5.373
	c-9.77,11.236-0.162,19.379-0.162,19.379c7.327,6.188,21.657,0.977,21.657,0.977c14.819-6.025,17.099-19.703,17.099-19.703
	c16.609-0.814,18.4-11.562,18.4-11.562c1.141-5.211-1.953-8.142-1.953-8.142c-4.723-5.536-16.773-4.234-16.773-4.234
	c-1.629-11.562-6.676-14.493-6.676-14.493c-6.188-5.536-18.564-3.908-18.564-3.908c-15.471,2.606-19.378,14.005-19.378,14.005
	s-3.583-0.978-8.794,2.442c-6.467,4.245-3.908,12.213-3.908,12.213c3.094,8.469,9.607,9.12,15.471,9.12
	c5.861,0,13.061-2.814,17.912-9.283c4.396-5.861-0.651-8.956-0.651-8.956c-5.536-2.28-8.956,1.304-8.956,1.304
	c-3.257,2.931-0.326,4.56-0.326,4.56c2.932,0.813,3.094-2.28,3.094-2.28s3.095-3.094,4.561,1.303c0,0,0.814,3.582-4.072,6.677
	c-4.885,3.094-14.654,5.536-20.843,0.977c0,0-6.188-5.536-1.628-11.888c0,0,1.791-3.419,10.584-4.233c0,0,2.28-10.91,17.099-13.679
	c0,0,10.585-1.465,16.772,3.257c0,0,4.885,3.257,6.676,15.308c0,0,9.934-2.118,15.471,2.279c0,0,4.234,2.769,1.629,9.282
	c0,0-1.955,6.351-11.562,7.49L312.056,85.495z"/>
<path fill="#FFFFFF" d="M74.736,68.226c0,0-4.396,3.926-6.752,5.653c0,0-6.438,3.612-5.811,10.992c0,0,0.001,6.596,12.249,11.619
	c0,0,13.348,6.596,27.164,2.983c0,0,8.01-2.668,22.456-13.816c0,0,7.322-7.184,20.511-11.267c0,0,15.547-4.711,26.537,0.314
	c0,0,13.035,6.438,18.53,10.991c0,0,16.33,11.306,21.669,14.762c5.34,3.454,19.158,11.147,25.752,12.09
	c0,0,13.348,3.298,22.77-1.099c0,0,9.107-4.24,12.091-7.224l-1.099-2.041c0,0-9.579,6.751-16.645,8.008
	c-7.066,1.257-17.587,1.728-29.207-5.025c0,0-19.785-11.147-28.578-17.586c0,0-16.645-11.305-22.141-13.817
	c0,0-12.406-5.81-23.555-3.455c0,0-9.991-0.04-22.239,8.753c0,0-11.935,8.95-17.743,12.876c-5.811,3.926-16.174,7.224-25.91,5.025
	c-9.734-2.198-19-8.009-19.785-11.62c0,0-2.354-5.495,4.711-10.05c0,0,2.984-2.041,4.083-3.454
	C73.795,71.839,75.835,68.54,74.736,68.226z"/>
</svg>
