<?xml version="1.0" encoding="utf-8"?>
<!-- Generator: Adobe Illustrator 15.0.0, SVG Export Plug-In  -->
<!DOCTYPE svg PUBLIC "-//W3C//DTD SVG 1.1//EN" "http://www.w3.org/Graphics/SVG/1.1/DTD/svg11.dtd" [
	<!ENTITY ns_flows "http://ns.adobe.com/Flows/1.0/">
]>
<svg version="1.1"
	 xmlns="http://www.w3.org/2000/svg" xmlns:xlink="http://www.w3.org/1999/xlink" xmlns:a="http://ns.adobe.com/AdobeSVGViewerExtensions/3.0/"
	 x="0px" y="0px" width="335px" height="165px" viewBox="-0.004 -0.866 335 165"
	 overflow="visible" enable-background="new -0.004 -0.866 335 165" xml:space="preserve">
<defs>
</defs>
<path fill="#DEC59C" d="M205.409,145.167c-12.579,6.531-26.367-3.87-26.367-3.87c-15.82-12.656-17.15-40.32-17.15-40.32
	c-0.438-36.922-18.632-41.404-18.632-41.404c-21.621-6.592-37.442,11.338-37.442,11.338c-14.062,11.602-21.391,8.106-21.391,8.106
	c-9.229-1.582-5.537-8.965-5.537-8.965c4.657-9.491,19.599-9.491,19.599-9.491c11.689-0.615,11.778-5.274,11.778-5.274l4.219,0.527
	c8.56,1.386,16.417-2.503,19.862-6.854c3.341-4.219,3.077-9.229,3.077-9.229c-0.669-14.875-13.711-18.193-13.711-18.193
	c2.196-16.171-10.688-19.532-10.688-19.532C97.996-2.743,86.536,8.352,86.536,8.352C79.153-1.931,66.497,0.178,66.497,0.178
	C55.686,0.706,48.917,12.044,48.917,12.044c-4.482-3.164-13.534-3.867-19.862,0.263c-7.915,5.167-8.174,16.084-8.174,16.084
	s-15.82,2.9-17.402,15.557c0,0-1.682,7.692,3.955,12.92c1.878,1.743,3.295,2.571,7.119,3.691c0,0,11.338,1.582,17.139-5.801
	c0,0,3.428,4.219,6.328,5.537c0,0-8.965,2.9-13.447,12.393c0,0-14.502-4.482-22.148,6.592c0,0-5.273,6.855-0.264,15.82
	c0,0,3.428,6.064,11.865,4.482c0,0,2.9,10.547,13.184,12.129c0,0,12.129,2.637,19.775-7.383c0,0,3.428-4.482,3.164-9.492
	c0,0,1.353,7.714,11.372,8.769c6.315,0.664,11.074-2.109,16.05-8.241c0,0,8.208,8.769,19.81,2.968c0,0,5.537-3.428,12.129-13.975
	c5.725-9.159,11.074-13.624,21.972-12.744c0,0,4.391-0.058,10.196,5.625c2.594,2.538,5.977,10.37,7.734,22.676
	c0,0,2.285,38.232,22.852,53.789c0,0,12.393,12.393,38.496,10.02c0,0,18.457-1.055,29.97-17.658c0,0,8.788-16.875,15.116-14.766
	c0,0-7.206,16.348,9.933,21.094c0,0,12.567,3.34,18.457-8.174c0,0,5.009-12.041,12.129-13.975c0,0,4.481-1.23,7.119,1.055
	c0,0-10.547-0.278-10.547,8.965c0,6.855,4.746,9.756,4.746,9.756c11.074,6.064,18.193-3.691,18.193-3.691
	c13.447,0.264,18.458-7.646,18.458-13.447s-5.538-10.283-5.538-10.283c0.791-4.746-0.527-9.492-0.527-9.492
	c-2.9-8.438-13.36-8.174-13.36-8.174c-10.195-1.229-22.499,7.383-22.499,7.383c-10.811,7.91-19.512,6.592-19.512,6.592
	c-11.074-1.582-6.328-10.283-6.328-10.283c2.9-5.01,13.447-0.264,13.447-0.264c4.219,1.318,12.512,2.407,18.721-1.318
	c7.03-4.219,6.064-11.865,6.064-11.865c-0.089-5.186-2.739-7.402-5.538-9.052c-5.729-3.378-13.887-2.637-13.887-2.637
	c1.582-14.238-6.415-19.952-6.415-19.952c-14.238-12.129-30.85,1.582-30.85,1.582c-1.846-2.637-9.756-6.855-9.756-6.855
	c10.547-6.328,4.746-17.666,4.746-17.666c-7.383-11.338-20.303-5.273-20.303-5.273c-3.164-11.338-12.656-12.129-12.656-12.129
	c-15.557-1.582-19.248,10.02-19.248,10.02c-5.537-1.318-11.865,0.527-11.865,0.527c-12.129,4.482-9.492,20.303-9.492,20.303
	c2.373,11.338,13.711,12.129,13.711,12.129c1.846,5.537,8.701,8.438,8.701,8.438c9.492,3.164,16.875-3.691,16.875-3.691
	c-0.791,1.846-1.318,6.328-1.318,6.328c-6.855,0.791-11.865,6.064-11.865,6.064c-7.119,7.91-1.582,17.93-1.582,17.93
	s-4.219-0.527-9.352,4.337c-2.779,2.635-4.887,7.001-2.25,11.747c0,0-9.316,9.748-1.406,20.031c0,0,8.789,10.555,22.236,3.699
	c0,0,9.492-5.537,7.383-17.402C210.67,123.652,217.607,138.833,205.409,145.167z"/>
<path fill="#FFFFFF" d="M119.43,23.624l2.645,1.228c0,0,5.712,2.125,9.442,7.603c1.363,2.002,1.759,5.251,1.605,7.743
	c-0.236,3.824-1.511,5.762-1.511,5.761c-4.155,6.611-15.014,7.083-15.014,7.083c-7.98-0.095-11.144-3.353-11.144-3.353
	c-3.778-3.636-1.511-8.404-1.511-8.404c1.888-3.967,7.177-5.052,7.177-5.052c5.146-0.897,5.648,2.355,5.648,2.355
	c-0.702,0.527-0.702,1.582-0.702,1.582c0.157,0.944,0.947,1.294,1.616,1.35c1.134,0.095,1.548-0.471,1.548-0.471
	c1.933-2.109-0.177-4.746-0.177-4.746c-4.395-4.219-11.952-1.055-11.952-1.055c-7.91,3.164-6.328,10.547-6.328,10.547
	c1.406,9.668,16.522,8.789,16.522,8.789c11.602,0,16.295-8.108,16.295-8.108c3.546-6.604,0.879-13.358,0.879-13.358
	c-3.164-7.735-12.779-11.053-12.779-11.053c1.055-4.57,0-8.965,0-8.965c-3.515-11.426-16.523-10.371-16.523-10.371
	c-11.776,0.352-18.984,8.438-18.984,8.438C81.79,5.365,74.345,1.377,65.792,2.728C55.773,4.31,49.622,14.857,49.622,14.857
	c-9.142-5.801-17.402-2.285-17.402-2.285c-9.844,4.395-9.317,17.051-9.317,17.051C5.148,32.787,5.5,45.619,5.5,45.619
	c-0.175,10.371,8.965,12.48,8.965,12.48c10.547,2.285,17.402-5.801,17.402-5.801c2.812,4.57,8.086,7.207,8.086,7.207
	c10.02,4.218,20.743-3.164,20.743-3.164c6.152,4.922,13.184,4.746,13.184,4.746c10.723,0.703,15.995-7.207,15.995-7.207
	c1.055-1.055,4.691-7.543,2.285-13.887c-1.933-5.098-7.787-8.284-11.83-8.812s-9.496-0.07-12.778,3.362
	c-3.868,4.043-2.69,8.239-0.581,10.525c2.109,2.285,6.557,2.482,8.491,0.725c1.934-1.758,1.055-3.867-0.353-4.043
	c-1.406-0.176-1.757,1.23-1.757,1.23s-3.341,2.637-5.099-1.406c0,0-1.055-3.867,3.517-6.68c0,0,6.45-3.714,13.711,1.406
	c0,0,6.39,4.591,3.515,12.832c-2.637,7.559-10.723,9.14-12.832,9.492c0,0-9.844,0.879-15.82-6.68c0,0-6.328,8.262-15.996,5.977
	c0,0-7.207-1.056-12.305-9.316c0,0-6.328,8.262-15.469,7.031c0,0-10.195-1.758-8.613-12.656c0,0,1.406-6.855,10.02-9.492
	c0,0,5.273-1.407,7.559-1.758c0,0-1.055-10.547,4.395-15.117c0,0,4.043-4.57,12.832-2.637c0,0,3.867,0.879,7.383,3.34
	c0,0,5.977-10.02,14.59-11.953c0,0,5.45-1.934,11.602,0.879c0,0,5.273,2.285,10.547,8.086c0,0,8.965-9.668,18.106-9.141
	c0,0,9.14-0.879,13.184,5.625C118.176,10.814,120.988,13.626,119.43,23.624z"/>
<path fill="#FFFFFF" d="M42.765,62.143l-3.691-0.88c0,0-9.492,4.044-13.535,13.536c0,0-8.789-3.341-16.699,0.878
	c0,0-7.734,3.691-6.855,12.656c0,0,0,6.505,5.449,8.789c0,0,2.812,1.583,8.086,0.703c0,0,2.285,9.844,10.898,11.953
	c0,0,9.844,1.935,17.402-4.219c0,0,6.275-4.592,3.516-14.94c0,0-3.691-9.669-13.008-8.438c0,0-8.438,0.175-8.965,7.03
	c0,0-0.527,6.153,4.57,6.681c0,0,4.57,0.527,4.043-3.868c0,0-1.758-2.285-2.812,0.177c0,0-2.461,1.405-3.164-1.407
	c0,0-1.055-5.448,4.746-5.976c0,0,8.613-1.582,11.953,6.503c0,0,2.793,6.899-2.262,11.806c-0.174,0.168-0.357,0.335-0.551,0.499
	c-5.801,4.923-11.25,5.273-15.469,3.691c-2.879-1.079-7.91-4.395-9.141-11.952c0,0-6.152,2.46-10.898-2.109
	C2.55,89.57,2.863,80.951,9.367,77.787c0,0,7.383-4.042,17.754-0.351C27.121,77.436,30.812,66.362,42.765,62.143z"/>
<path fill="#FFFFFF" d="M197.487,48.11c0,0,0.791,2.769-2.241,3.164c0,0-2.109,0.396-1.978-2.9c0,0,0.527-3.296,5.537-4.482
	s9.492,0.791,11.602,3.296s4.746,6.328,3.691,11.865s-6.987,11.47-9.624,12.788s-8.042,3.428-14.238-0.132
	c0,0-3.691-1.714-5.669-6.855c0,0-8.701-0.791-11.338-6.855c0,0-4.878-6.592-0.527-17.007c0,0,3.691-7.383,12.393-6.987
	c0,0,4.878,0.264,6.46,1.055c0,0,1.45-6.592,9.097-9.756c0,0,6.987-2.505,13.184,0c0,0,5.669,2.373,7.91,11.074
	c0,0,8.042-3.032,12.261-1.187c0,0,8.569,2.241,9.36,11.733c0,0,0.132,6.46-5.933,9.888c0,0-1.582,0.791-3.164,0.132
	c0,0,5.669-3.164,6.064-8.569s-3.164-11.074-8.174-11.206s-12.261,2.9-12.261,2.9s0.132-10.02-7.251-13.052
	c0,0-9.756-2.637-14.502,2.109s-5.933,8.569-5.933,8.569s-7.515-4.087-13.315,0.264s-6.855,11.865-4.219,17.534
	s7.383,7.251,11.865,7.251c0,0,3.691,9.229,11.338,8.174s11.368-4.729,12.788-9.492c1.846-6.196-0.659-10.547-3.428-12.92
	C205.26,46.807,200.519,46.264,197.487,48.11z"/>
<path fill="#FFFFFF" d="M286.607,132.353c-1.005,1.735-6.999,11.763-6.999,11.763c-4.377,6.518-13.567,3.882-13.567,3.882
	c-5.801-1.934-7.91-6.855-7.734-10.02s1.406-7.03,6.504-7.03s5.098,4.921,5.098,4.921c-1.9,0.019-2.285,1.23-2.285,1.23
	c-0.785,1.58,0.611,2.827,0.611,2.827c2.83,1.471,4.486-2.3,4.486-2.3c2.08-5.401-3.164-8.788-3.164-8.788
	c-4.746-2.461-9.316,0.702-9.316,0.702c-6.152,3.867-4.395,12.481-2.812,14.766c1.582,2.285,5.264,7.417,14.238,6.855
	c5.625-0.352,9.668-4.57,13.535-12.656c3.426-7.163,8.262-9.316,8.262-9.316c8.965-3.515,12.656,3.341,12.656,3.341
	c-9.844-0.527-11.25,5.801-11.25,5.801c-1.582,8.788,7.383,11.425,7.383,11.425c8.262,1.934,13.008-4.922,13.008-4.922
	c2.988,0,9.316-1.406,9.316-1.406c3.768-1.354,4.952-2.58,6.2-4.175c2.349-3.001,2.237-6.195,2.237-6.195
	c-0.098-6.256-6.328-9.492-6.328-9.492c1.934-8.789-1.055-13.184-6.68-15.997c-5.625-2.812-13.008-0.527-16.523,0.527
	s-13.359,8.262-18.105,10.371c-2.896,1.287-15.469,5.273-20.215-0.352c-4.746-5.624-0.879-11.074-0.879-11.074
	c4.57-5.273,10.106-0.911,19.512,0.527c11.425,1.747,15.217-1.287,18.251-6.027c2.375-3.71,1.39-9.933-2.606-13.484
	c-4.746-4.219-16.172-2.988-16.172-2.988c2.109-18.984-9.668-23.026-9.668-23.026c-13.359-5.626-26.016,4.57-26.016,4.57
	c-5.801-7.91-17.051-10.724-27.773-5.978c-10.722,4.746-10.723,17.755-10.723,17.755c-2.988,0-9.316,2.988-9.316,2.988
	c-10.371,6.855-4.219,18.28-4.219,18.28c4.395,6.855,15.293,4.571,15.293,4.571c3.34,14.413,15.293,13.358,15.293,13.358
	c11.954,0,18.281-9.667,18.281-9.667c13.008-0.176,15.469-6.855,15.469-6.855c7.031-13.711-3.867-21.094-3.867-21.094
	c-11.602-7.383-23.555-1.055-23.555-1.055c-13.008,6.328-7.734,18.281-7.734,18.281c5.098,6.504,11.602,4.922,16.348,2.637
	c4.746-2.286,6.855-7.207,4.746-11.251c-2.109-4.043-6.328-2.284-6.328-2.284c-4.57,2.284-1.934,4.57-1.934,4.57
	c2.812,1.582,2.988-2.109,2.988-2.109s4.395,0.526,3.164,5.272c0,0-3.34,5.977-12.48,4.57c0,0-7.559-1.582-4.395-10.898
	c0,0,3.34-7.734,14.766-8.613c0,0,13.535-2.285,17.754,10.898c0,0,2.285,9.14-5.273,13.184c-7.559,4.043-11.074,1.758-11.074,1.758
	s-6.328,8.086-12.129,9.668c-6.553,1.788-14.062,1.406-18.105-13.184c0,0-11.953,3.867-15.645-4.043c0,0-3.34-6.503,1.758-12.48
	c0,0,4.395-4.219,12.305-4.395c0,0-1.23-11.602,8.086-17.227c0,0,9.492-4.746,16.699-1.934s9.316,6.504,10.898,9.141
	c0,0,8.613-9.844,21.27-7.734c0,0,9.844,0.879,12.656,13.184c0,0,0.703,7.031-0.352,12.305c0,0,12.48-1.23,16.699,2.285
	c0,0,4.795,2.746,2.637,9.844c-1.916,6.3-10.532,5.998-13.862,4.973c-1.212-0.374-9.517-3.391-9.517-3.391
	s-8.262-2.461-12.656,2.285s-3.34,10.371-0.703,14.238s11.074,4.746,15.293,3.867s12.832-4.395,19.688-9.492
	s16.348-5.801,19.336-4.395s10.02,5.098,7.559,15.82c0,0,6.48,4.28,5.625,10.195c-0.75,5.178-5.517,6.638-7.559,7.222
	c-1.74,0.496-8.464,0.777-8.464,0.777s-4.669,8.366-12.807,5.361c0,0-7.206-3.517-4.219-10.02c0,0,1.407-4.923,10.372-3.691
	c0,0-1.055-10.899-15.293-6.855C292.583,127.256,288.541,129.014,286.607,132.353z"/>
<path fill="#FFFFFF" d="M194.763,102.726c0,0-5.098-0.528-9.316,4.745c0,0-4.219,4.747-0.176,10.723c0,0-4.922,3.341-4.57,10.724
	c0,0-0.879,8.788,11.25,11.952c0,0,12.656,2.637,16.348-9.492c0,0,1.758-8.086-1.758-12.479c0,0-1.934-3.691-6.504-2.109
	c-3.425,1.186-4.922,2.987-5.801,5.977c-1.24,4.216,1.934,5.45,2.812,5.801c0,0,2.461,0,2.637-1.935c0,0,0.176-2.107-1.758-1.757
	c0,0-1.23,0.352-1.23,1.055c0,0-2.637-2.109,0.703-5.626c0,0,3.164-3.515,7.031-0.878c0,0,3.164,2.987,1.934,10.02
	c-1.23,7.031-8.261,9.151-9.668,9.315c-2.988,0.352-9.844-0.525-12.48-7.03c-2.637-6.504,1.055-10.897,2.988-12.656
	c0,0-3.34-5.626-0.527-9.668c0,0,1.934-4.044,6.855-4.571c0,0,2.285-0.176,2.461,1.23c0,0-1.934,0.352-1.406,1.582
	c0,0,0.176,1.759,2.812,0.352c0,0,1.758-1.055,0.703-2.988C197.122,103.211,194.763,102.726,194.763,102.726z"/>
<path fill="#FFFFFF" d="M58.005,82.511c0,0-3.516-1.056-5.625,1.757c0,0-4.57,4.746,0,12.481c0,0,4.219,5.8,10.02,5.448
	c0,0,8.613,1.055,15.117-9.844c0,0,5.449,7.032,13.359,5.978c0,0,6.68,0.176,13.359-10.02c0,0,8.262-13.712,15.293-16.699
	c0,0,13.183-5.449,21.62,2.284c0,0,7.383,4.57,9.669,24.609c0,0,2.725,23.028,9.843,37.617c0,0,7.91,16.172,23.73,22.5
	c0,0,17.227,8.262,37.794,0.879c0,0,12.48-5.977,20.214-19.16c0,0,6.328-10.37,12.481-10.722c0,0,9.14-0.703,7.558-7.735
	c0,0-0.351-5.273-5.624-5.624c0,0-3.868-0.177-4.746,2.46c0,0-1.582,3.517,0.878,4.044c0,0,2.286-0.176,1.407-2.109
	c0,0-0.353-0.527-0.88-0.527c0,0,1.231-3.34,4.044-2.109c0,0,3.339,1.229,2.812,4.921c0,0,0.352,3.341-5.624,4.746
	c-5.978,1.407-11.251,7.208-13.36,10.899s-9.595,12.594-15.644,16.348c-5.099,3.163-15.293,6.327-25.312,5.098
	c-11.36-1.396-21.446-2.988-31.113-15.117c-9.669-12.129-12.305-25.225-15.293-39.551c0,0-0.967-21.533-9.669-31.466
	c0,0-7.733-10.547-22.851-5.449c0,0-8.789,1.758-18.458,18.105c0,0-6.327,10.371-13.184,9.844c-6.505-0.5-10.019-4.043-12.479-6.855
	c0,0-3.164,5.098-6.328,7.383s-9.493,6.504-15.469,0.353c0,0-6.152-5.978-2.285-11.427c0,0,2.109-2.461,3.867-1.406
	c0,0-0.176,1.582,1.406,1.406c0,0,1.933,0.001,1.758-1.934C60.291,83.917,59.938,82.862,58.005,82.511z"/>
<path fill="#FFFFFF" d="M172.994,141.054c11.865,11.338,24.672,11.561,32.174,9.192c4.596-1.451,11.301-8.446,11.127-17.175
	c-0.242-12.096-7.645-14.174-7.645-14.174l0.527,2.109c5.01,3.164,5.182,11.339,5.182,11.339
	c0.727,11.127-9.191,15.965-9.191,15.965c-11.37,5.564-27.094-4.838-27.094-4.838c-15.481-14.03-17.148-34.331-17.148-34.331
	c-1.582-26.367-6.328-34.805-6.328-34.805c-7.383-15.029-17.666-15.293-25.312-14.766c-5.107,0.353-12.129,3.164-22.939,12.92
	s-17.328,9.701-22.676,8.174c-7.383-2.109-8.174-6.855-7.119-10.283s6.328-9.492,19.512-10.811s12.656-4.746,12.656-4.746
	l-2.109-1.055c0,0,0,3.164-13.711,4.746c0,0-15.557,1.846-18.457,11.602c0,0-2.373,9.492,6.064,11.865c0,0,11.602,4.482,25.84-6.855
	c0,0,16.084-15.82,29.004-13.711c0,0,14.857,0.909,19.26,19.403c3.629,15.24,2.42,8.708,4.471,28.321
	C160.845,126.026,169.353,137.574,172.994,141.054z"/>
</svg>
