<?xml version="1.0" encoding="utf-8"?>
<!-- Generator: Adobe Illustrator 15.0.0, SVG Export Plug-In  -->
<!DOCTYPE svg PUBLIC "-//W3C//DTD SVG 1.1//EN" "http://www.w3.org/Graphics/SVG/1.1/DTD/svg11.dtd" [
	<!ENTITY ns_flows "http://ns.adobe.com/Flows/1.0/">
]>
<svg version="1.1"
	 xmlns="http://www.w3.org/2000/svg" xmlns:xlink="http://www.w3.org/1999/xlink" xmlns:a="http://ns.adobe.com/AdobeSVGViewerExtensions/3.0/"
	 x="0px" y="0px" width="219px" height="107px" viewBox="-0.042 -0.279 219 107"
	 overflow="visible" enable-background="new -0.042 -0.279 219 107" xml:space="preserve">
<defs>
</defs>
<path fill="#DEC59C" d="M112.803,95.472c0,0-1.068,6.825-9.47,9.47C88.292,109.677,83,97.421,83,97.421s-9.47,1.672-16.154-3.342
	s-5.849-14.205-5.849-14.205c-3.899,1.393-10.862,2.507-15.876,0.278c-5.013-2.228-12.812-11.977-12.812-11.977
	s-3.342-5.849-15.598-4.734C1.416,64.833,0,54.529,0,54.529c16.711,5.292,18.94-3.063,27.017-9.191
	c8.077-6.127,20.611-3.063,20.611-3.063s8.634-6.685,24.51-5.014s23.953,9.748,27.017,19.775c0,0,17.826,1.949,25.902,13.647
	c0,0,8.635,2.785,6.964,16.434C132.021,87.117,130.071,97.979,112.803,95.472z"/>
<path fill="#FFFFFF" d="M113.917,66.505c-7.798-5.57-18.104-4.456-18.104-4.456c-2.785-5.57-11.141-16.99-23.117-19.497
	c-11.977-2.507-24.51,4.456-24.51,4.456c-7.242-1.671-14.483,0.558-18.383,2.507c-3.899,1.95-9.748,8.356-9.748,8.356
	s3.063,0,5.57,0s7.52,0.557,15.876,11.141c8.355,10.584,15.876,6.406,15.876,6.406c5.292-10.027,12.255-11.42,12.255-11.42
	c0-2.507-1.393-5.292-1.393-5.292c-3.064-3.899-8.913,0.836-8.913,0.836c1.114,3.899-1.949,3.063-1.949,3.063
	c-2.229,0.278-0.557-3.063-0.557-3.063c1.671-3.621,5.013-3.899,5.013-3.899c12.255-3.063,11.141,10.862,11.141,10.862
	c-3.064,0-5.849,1.393-5.849,1.393c-6.963,3.343-8.634,10.027-8.634,10.027s-4.178,1.393-9.748,0.278
	c-4.651-0.931-12.534-10.862-12.534-10.862s-5.292-7.521-13.091-7.242c-7.799,0.279-19.497-1.949-14.762-1.393
	c4.735,0.558,9.035-1.758,10.862-3.063c3.899-2.785,3.064-5.014,10.306-9.191s17.547-1.949,17.547-1.949s11.977-7.521,26.738-4.735
	S96.37,54.529,97.762,59.821c0,0,14.205-1.114,23.396,9.748c0,0,0.229,0.013-1.95,0.558
	C118.094,70.405,113.917,66.505,113.917,66.505z"/>
<path fill="#FFFFFF" d="M120.879,83.217c-1.393,2.785-4.456,2.228-4.456,2.228c-8.634-0.835-5.292-8.077-5.292-8.077
	c3.064-6.406,9.47-5.292,9.47-5.292c5.292,0,8.077,5.57,8.077,5.57c3.621,9.191-1.671,12.812-1.671,12.812
	c-2.507,4.178-15.876,3.063-15.876,3.063c-3.899,10.306-13.369,10.027-13.369,10.027c-9.748,0.835-13.926-8.635-13.926-8.635
	c-4.321,1.423-10.027,0-10.027,0c-11.141-3.62-10.862-13.926-10.862-13.926s-0.738-5.167,3.375-9.374
	c1.536-1.572,4.051-3.104,6.966-3.767c0,0,3.705-0.596,7.089,0.398c2.656,0.779,4.897,2.438,6.245,5.501
	c0,0,2.567,8.278-2.506,11.419c0,0-7.912,4.147-11.141-2.507c0,0-1.718-4.893,0.314-6.066c0,0,1.855-1.325,2.75,0.774
	c0,0,0.278,2.507-1.393,2.507c0,0,0.279,6.406,6.963,3.621c0,0,6.127-1.95,1.671-10.306c0,0-4.178-5.57-12.533-2.229
	c0,0-9.47,4.735-3.621,16.434c0,0,4.735,8.634,17.547,5.292c0,0,3.899,9.47,13.648,8.077c0,0,8.077,0.278,11.419-9.749
	c0,0,10.306,2.507,15.876-2.506c0,0,5.57-6.685-1.114-12.534c0,0-4.456-3.899-9.191-0.557c0,0-4.456,4.178-1.113,6.685
	c0,0,2.228,0.557,3.062,0c0.836-0.558,0.836-0.558,0.836-0.558s-0.278-2.507,1.393-1.671
	C119.487,79.875,121.852,81.272,120.879,83.217z"/>
<path fill="#DEC59C" d="M102.512,26.321c0,0,0.226-5.392,5.426-7.064c0,0-2.702-8.643,3.827-14.062
	c5.781-4.8,12.693-2.172,12.693-2.172s9.168-6.331,24.054-0.669c14.886,5.661,16.059,14.405,16.059,14.405
	s12.794-2.438,24.085,3.075c11.292,5.512,12.246,15.003,12.246,15.003s7.998-1.827,13.859,4.358c0,0,9.447,8.766-0.824,19.77
	c0,0-10.348,6.408-24.602,0.682c0,0-3.992,13.697-29.598,8.219c0,0-7.132,9.152-21.067,6.591
	c-12.509-2.299-17.214-5.938-17.214-5.938s-11.223,7.902-24.528-1.114c0,0-10.494-5.207-7.45-15.612c0,0-13.568-2.727-11.347-14.966
	c0,0,1.109-9.315,10.473-11.534C95.521,23.65,102.512,26.321,102.512,26.321z"/>
<path fill="#FFFFFF" d="M100.743,27.781c0,0-9.772-3.108-16.287,2.021c0,0-9.323,7.711-1.876,16.934c0,0,4.013,3.048,8.734,4.235
	c0,0-3.464,7.506,5.159,14.438c0,0,14.039,8.687,25.26,0.785c0,0,16.202,9.636,28.467,5.957c0,0,5.199-1.674,9.486-7.346
	c0,0,9.899,4.375,19.338,0.357c0,0,4.164-0.547,9.653-6.979c0,0,15.315,6.129,24.272-1.418c0,0,6.811-4.315,2.828-13.834
	c0,0-3.531-8.293-15.52-5.598c0,0-3.041-11.323-13.803-16.509c0,0-10.898-4.146-22.793-1.671c0,0-4.804-12.172-17.006-15.291
	c0,0-13.175-4.293-19.678,1.339c0,0-8.278-2.236-13.591,2.133c0,0-5.643,3.637-2.854,12.303c0,0-4.265,0.812-6.489,6.66
	c-1.146,3.014-1.262,6.518,1.081,10.758c0,0,5.915,9.247,19.013,6.014c0,0,17.012,13.338,27.99,0.475c0,0,5.269-5.563,2.227-12.523
	c-0.971-2.222-2.418-3.6-5.288-5.288c0,0-8.719-2.661-11.411,3.618c0,0-2.865,6.512,1.285,8.396c0,0,4.229,0.085,2.278-2.786
	c0,0-0.862-0.936-2.127-0.809c0,0,0.63-6.454,6.718-5.66c0,0,7.414,1.3,5.42,8.147c0,0-1.629,8.897-11.348,8.854
	c-9.088-0.043-14.303-4.613-14.303-4.613s-10.627,1.971-17.147-5.684c0,0-5.719-8.937,6.123-14.473c0,0-6.149-7.547,2.227-11.968
	c0,0,5.845-2.505,10.854,0.278c0,0,9.165-6.296,20.596-1.948c0,0,9.463,3.34,14.75,16.699c0,0,11.061-5.941,24.215,0.278
	c0,0,9.184,5.01,11.455,15.094c0,0,8.971-1.167,13.037,4.944c4.066,6.109-1.746,11.94-5.01,12.524
	c-3.266,0.583-7.688,2.438-18.523-1.074c0,0-4.93,7.345-14.318,8.032c-9.391,0.688-14.195-3.34-14.195-3.34
	s-4.73,8.906-13.637,10.02c-9.283,1.16-24.214-6.958-24.214-6.958s-12.066,8.058-22.853,1.217
	c-10.786-6.842-3.587-15.968-3.587-15.968s-15.746,0.397-12.993-11.639c0,0,2.336-8.544,13.184-7.461l4.126,0.353
	C99.669,29.807,102.668,29.122,100.743,27.781z"/>
</svg>
