<?xml version="1.0" encoding="utf-8"?>
<!-- Generator: Adobe Illustrator 15.0.0, SVG Export Plug-In . SVG Version: 6.00 Build 0)  -->
<!DOCTYPE svg PUBLIC "-//W3C//DTD SVG 1.1//EN" "http://www.w3.org/Graphics/SVG/1.1/DTD/svg11.dtd">
<svg version="1.1" id="レイヤー_1" xmlns="http://www.w3.org/2000/svg" xmlns:xlink="http://www.w3.org/1999/xlink" x="0px"
	 y="0px" width="595.28px" height="841.89px" viewBox="0 0 595.28 841.89" enable-background="new 0 0 595.28 841.89"
	 xml:space="preserve">
<path opacity="0.75" fill="#FFFFFF" d="M336.365,504.68c-9.987-0.768-14.981-3.84-14.981-3.84
	c-12.293-9.22-3.073-17.672-3.073-17.672c13.829-8.451,23.433-6.53,41.487-6.53c27.275,0,23.817,8.451,23.817,8.451
	c-0.384,4.993-17.286,5.763-17.286,5.763c-16.52,0.383-21.896-3.842-21.896-3.842c-0.769-4.225,9.22-3.073,9.22-3.073l6.529,2.305
	c0,0,4.227-3.456-3.841-5.763c-8.067-2.304-17.287-0.383-17.287,4.994s5.763,8.452,11.909,9.604
	c6.146,1.154,18.055,1.154,18.055,1.154c22.28,0,20.36-12.678,20.36-12.678c-1.536-11.908-30.732-11.523-30.732-11.523
	c-41.104-1.922-48.019,10.371-48.019,10.371c-9.22,14.982,7.684,21.896,7.684,21.896s-50.324-2.305-84.129-1.537
	c-33.804,0.768-33.804-20.744-33.804-20.744c0.384-13.83,19.67-17.392,28.714-20.262c8.163-2.592,66.554-5.475,66.554-5.475
	s78.366-1.153,80.286-1.153c1.922,0,48.786,1.921,74.141-6.531c25.354-8.452,21.128-26.89,21.128-26.89
	c0.384-21.896-12.292-26.123-18.438-29.963s-33.806-8.067-33.806-8.067s-32.652-2.305-41.872-3.458s-34.572-3.841-48.019-9.22
	c-8.133-3.254-15.365-6.914-13.829-17.671c1.902-13.316,23.434-16.902,28.044-17.286c4.609-0.384,33.804-1.152,33.804-1.152
	c-16.519,3.457-13.06,13.829-13.06,13.829c-0.386,11.14,8.834,16.134,19.975,20.359c11.141,4.225,43.793,4.226,58.391,0.385
	s12.677-14.598,12.677-14.598c-1.92-8.836-9.987-9.604-9.987-9.604c13.829,10.756,1.152,17.67,1.152,17.67
	c-5.379,4.994-34.189,4.61-34.189,4.61c-23.433-0.384-35.727-7.298-35.727-7.298c-8.451-4.995-6.146-11.141-2.688-17.287
	c3.456-6.146,30.347-8.452,30.347-8.452c-2.306,0-8.067,4.609-9.22,9.989c-1.152,5.378,3.458,12.676,10.372,13.828
	c6.915,1.153,25.738,0.77,29.963-4.994c4.226-5.762-4.225-9.604-4.225-9.604c-8.067-2.304-8.451,4.226-8.451,4.226l6.53-1.152
	c4.609,1.921-0.384,5.762-0.384,5.762c-5.763,1.921-19.592,1.153-19.592,1.153c-10.756-1.921-8.452-11.909-5.378-14.213
	c3.073-2.306,9.988-3.458,9.988-3.458l60.694,0.768l-1.153-5.762h-118.7c0,0-34.188-2.304-41.872,13.061
	c0,0-8.684,15.937,3.457,27.659c11.141,10.756,38.03,12.677,58.007,13.829c8.821,0.509,76.061,6.146,85.665,18.439
	c0,0,6.529,5.762,6.714,15.568c0.099,5.18-2.777,12.091-9.404,17.853c0,0-7.298,7.683-39.566,10.371
	c-46.066,3.842-81.438,3.074-81.438,3.074s19.975-3.843,19.591-23.049c0,0,1.839-19.03-29.979-22.813c0,0-37.609-4.46-82.555-2.923
	c0,0-46.503,0.382-61.1,4.608c0,0-14.598,3.842-14.598,16.902c0,0-3.361,15.942,34.381,19.977c0,0,28.811,3.169,49.363-3.075
	c0,0,10.372-3.457,10.372-11.523c0,0,0.768-11.524-24.97-12.292c0,0,33.037-0.001,42.257,0.768
	c9.22,0.769,17.38,5.378,17.766,11.142c0,0,2.017,14.117-29.291,18.054c-31.312,3.937-81.055,3.267-86.049,3.458
	c-7.716,0.295-42.256-1.154-51.859,7.682s-8.836,18.44-8.836,23.434s1.152,23.049,18.439,25.737
	c17.286,2.688,74.522,4.226,84.128,4.226c9.604,0,145.977,1.152,155.964,1.152s92.962-1.152,95.268-1.152l-1.92-6.914
	L336.365,504.68z M343.663,415.945c11.139,6.915,4.418,19.014,4.418,19.014c-6.051,15.27-42.064,15.27-42.064,15.27
	c26.219-5.474,23.914-22.184,23.914-22.184c-0.576-17.575-23.625-20.456-23.625-20.456
	C334.252,408.741,343.663,415.945,343.663,415.945z M141.507,502.089c0,0-16.423-0.288-16.423-24.201
	c0,0-1.152-17.286,18.728-21.032l25.93-2.305c0,0-25.354,2.593-27.37,16.133c0,0-5.762,16.135,9.22,25.066
	c0,0,15.846,9.508,41.775,9.508C193.366,505.258,162.25,505.545,141.507,502.089z M165.708,496.039
	c-19.592-6.627-18.727-19.881-18.727-19.881c0-12.389,18.438-17.574,18.438-17.574c9.22-3.169,33.997-3.457,33.997-3.457
	c18.727-0.576,38.895-1.441,38.895-1.441c27.37-0.863,43.793-6.627,43.793-6.627c22.185-6.625,20.455-16.421,20.455-16.421
	c-1.152-12.677-12.677-15.558-12.677-15.558c-13.829-5.186-50.63-3.849-50.63-3.849c-27.347,1.892-40.412,5.002-40.412,5.002
	c-12.045,2.91-7.779,12.676-7.779,12.676c1.939,4.178,8.598,5.546,14.735,6.119c5.716,0.535,11.005,0.411,11.005,0.411
	c16.948-0.3,15.171-4.801,15.171-4.801c0.034-4.059-7.778-4.897-7.778-4.897c-10.372-1.441-9.796,1.152-9.796,1.152
	c-0.293,2.427,7.197,2.473,7.197,2.473c6.119-0.046,5.191,1.561,5.191,1.561c-0.169,0.54-1.711,0.962-3.547,1.179
	c-5.467,0.644-13.74,0.262-13.74,0.262c-12.676-0.576-13.828-6.339-13.828-6.339c-0.289-4.609,5.186-6.338,5.186-6.338
	c10.948-2.88,33.133-1.152,33.133-1.152c21.896,2.017,22.184,10.661,22.184,10.661c-1.152,9.508-24.777,10.947-24.777,10.947
	c-15.27,2.018-37.454-2.305-37.454-2.305c-25.354-4.897-21.896-15.27-21.896-15.27c0.474-8.244,13.541-12.101,13.541-12.101
	c13.419-3.71,39.374-4.128,39.374-4.128c9.507-0.288,47.635,0,47.635,0c15.846,0.577,35.726,5.28,35.726,5.28
	c14.981,4.898,16.134,15.846,16.134,15.846c-0.287,8.067-8.066,14.405-8.066,14.405c-7.779,6.916-46.963,10.373-46.963,10.373
	c-33.996,2.305-52.724,7.49-52.724,7.49c-25.065,5.762-22.761,22.473-22.761,22.473c0,18.439,20.456,21.032,20.456,21.032
	C193.366,502.089,165.708,496.039,165.708,496.039z"/>
</svg>
