<?xml version="1.0" encoding="utf-8"?>
<!-- Generator: Adobe Illustrator 15.0.0, SVG Export Plug-In  -->
<!DOCTYPE svg PUBLIC "-//W3C//DTD SVG 1.1//EN" "http://www.w3.org/Graphics/SVG/1.1/DTD/svg11.dtd" [
	<!ENTITY ns_flows "http://ns.adobe.com/Flows/1.0/">
]>
<svg version="1.1"
	 xmlns="http://www.w3.org/2000/svg" xmlns:xlink="http://www.w3.org/1999/xlink" xmlns:a="http://ns.adobe.com/AdobeSVGViewerExtensions/3.0/"
	 x="0px" y="0px" width="357px" height="183px" viewBox="-0.585 -0.953 357 183"
	 overflow="visible" enable-background="new -0.585 -0.953 357 183" xml:space="preserve">
<defs>
</defs>
<path fill="#5A5B90" d="M215.905,174.097c-9.987-0.769-14.981-3.841-14.981-3.841c-12.293-9.219-3.073-17.671-3.073-17.671
	c13.829-8.451,23.433-6.53,41.487-6.53c27.275,0,23.817,8.451,23.817,8.451c-0.384,4.993-17.286,5.762-17.286,5.762
	c-16.52,0.384-21.896-3.841-21.896-3.841c-0.769-4.226,9.22-3.073,9.22-3.073l6.529,2.305c0,0,4.227-3.457-3.841-5.763
	c-8.067-2.304-17.287-0.384-17.287,4.993c0,5.378,5.763,8.453,11.909,9.604c6.146,1.153,18.055,1.153,18.055,1.153
	c22.28,0,20.36-12.678,20.36-12.678c-1.536-11.907-30.732-11.523-30.732-11.523c-41.104-1.922-48.019,10.372-48.019,10.372
	c-9.22,14.981,7.684,21.896,7.684,21.896s-50.324-2.305-84.129-1.537c-33.804,0.768-33.804-20.744-33.804-20.744
	c0.384-13.829,19.67-17.391,28.714-20.262c8.163-2.592,66.554-5.475,66.554-5.475s78.366-1.152,80.286-1.152
	c1.922,0,48.604,1.352,74.141-6.531c23.466-7.244,22.229-26.555,22.229-26.555c1.237-22.281-12.627-26.985-19.539-30.299
	c-6.536-3.133-33.806-8.066-33.806-8.066s-32.652-2.306-41.872-3.458s-33.893-2.643-48.631-8.196
	c-8.197-3.088-13.989-7.856-13.217-18.694C195.818,8.117,218.21,5.842,222.82,5.457c4.609-0.383,34.727-0.758,34.727-0.758
	c-14.028,2.317-13.982,13.436-13.982,13.436c-0.386,11.14,7.664,16.995,19.108,20.312c14.738,4.272,44.209,5.375,58.738,1.282
	c15.165-4.272,14.097-15.379,14.097-15.379c-1.922-10.893-10.889-9.673-10.889-9.673c5.977,3.692,6.843,6.271,6.442,10.313
	c-0.466,4.699-5.29,7.356-5.29,7.356c-6.71,5.246-34.189,4.61-34.189,4.61c-23.433-0.385-35.727-7.299-35.727-7.299
	c-8.451-4.994-6.419-13.415-2.688-17.287c8.01-8.312,30.347-8.451,30.347-8.451c-2.306,0-8.067,4.609-9.22,9.988
	s3.458,12.677,10.372,13.828c6.915,1.154,27.148,1.616,30.55-4.668c4.218-7.792-3.417-10.466-3.417-10.466
	c-8.067-2.304-9.846,4.763-9.846,4.763s3.915-2.943,7.068-1.773c1.964,0.728,2.238,2.353,1.923,3.417
	c-0.525,1.775-2.845,2.965-2.845,2.965c-7.835,3.443-19.592,1.153-19.592,1.153c-10.756-1.921-9.664-10.296-5.378-14.213
	c3.678-3.361,9.988-3.458,9.988-3.458l62.681,0.31V0L233.96,0.463c0,0-34.188-2.305-41.872,13.061c0,0-8.722,15.977,3.457,27.659
	c10.953,10.507,38.03,12.677,58.007,13.829c8.821,0.51,76.061,6.146,85.665,18.439c0,0,6.529,5.762,6.714,15.568
	c0.099,5.18-1.27,13.578-9.192,18.777c0,0-7.51,6.758-39.778,9.446c-46.066,3.841-81.438,3.073-81.438,3.073
	s19.975-3.842,19.591-23.049c0,0,1.839-19.029-29.979-22.812c0,0-37.609-4.46-82.555-2.924c0,0-46.503,0.383-61.1,4.609
	c0,0-14.598,3.842-14.598,16.902c0,0-3.361,15.942,34.381,19.977c0,0,28.811,3.168,49.363-3.075c0,0,10.372-3.458,10.372-11.524
	c0,0,0.768-11.523-24.97-12.292c0,0,25.396-1.911,42.257,0.768c9.137,1.452,17.38,5.379,17.766,11.142
	c0,0,2.017,14.117-29.291,18.055c-31.312,3.936-81.055,3.266-86.049,3.457c-7.716,0.296-42.256-1.154-51.859,7.682
	s-8.836,18.441-8.836,23.435s1.152,23.048,18.439,25.737c17.286,2.688,74.522,4.226,84.128,4.226
	c9.604,0,145.977,1.152,155.964,1.152s94.973-0.425,97.278-0.425l0.159-7.643L215.905,174.097z M43.923,167.717
	c-20.688-5.812-17.401-22.142-17.401-22.142C26.521,133.187,44.96,128,44.96,128c9.22-3.168,33.997-3.457,33.997-3.457
	c18.727-0.576,38.895-1.44,38.895-1.44c27.37-0.864,43.793-6.627,43.793-6.627c22.185-6.626,20.455-16.421,20.455-16.421
	c-1.152-12.678-12.677-15.559-12.677-15.559c-13.829-5.186-50.63-3.85-50.63-3.85c-31.37,0.57-40.412,5.002-40.412,5.002
	c-12.045,2.91-7.779,12.677-7.779,12.677c1.939,4.178,8.598,5.546,14.735,6.119c5.716,0.534,11.005,0.411,11.005,0.411
	c16.948-0.301,15.171-4.801,15.171-4.801c0.034-4.059-7.778-4.898-7.778-4.898c-10.372-1.441-9.796,1.152-9.796,1.152
	c-0.293,2.428,7.197,2.473,7.197,2.473c6.119-0.045,5.191,1.561,5.191,1.561c-0.169,0.541-1.711,0.963-3.547,1.18
	c-5.467,0.644-13.74,0.262-13.74,0.262c-12.676-0.576-13.828-6.339-13.828-6.339c-0.289-4.609,5.186-6.339,5.186-6.339
	c10.948-2.881,33.133-1.152,33.133-1.152c21.896,2.018,22.184,10.66,22.184,10.66c-1.152,9.508-24.777,10.948-24.777,10.948
	c-15.27,2.017-37.454-2.305-37.454-2.305c-25.354-4.897-21.896-15.271-21.896-15.271c0.474-8.244,13.541-12.1,13.541-12.1
	c13.419-3.711,39.374-4.129,39.374-4.129c9.507-0.287,47.635,0,47.635,0c15.846,0.577,35.726,5.28,35.726,5.28
	c16.712,4.4,16.134,15.847,16.134,15.847c0.151,10.127-8.066,14.405-8.066,14.405c-7.779,6.915-46.963,10.372-46.963,10.372
	c-33.996,2.305-52.724,7.49-52.724,7.49c-25.065,5.763-22.761,22.473-22.761,22.473c0,18.439,20.456,21.033,20.456,21.033
	C53.352,172.156,43.923,167.717,43.923,167.717z"/>
<path opacity="0.57" fill="#5A5B90" d="M19.228,171.506c0,0-14.604-0.289-14.604-24.201c0,0-1.025-17.287,16.654-21.032l23.06-2.306
	c0,0-22.547,2.594-24.341,16.134c0,0-5.124,16.135,8.199,25.065c0,0,14.092,9.508,37.151,9.508
	C65.347,174.674,37.675,174.962,19.228,171.506z"/>
<path opacity="0.57" fill="#5A5B90" d="M224.203,85.361c11.139,6.915,4.418,19.014,4.418,19.014
	c-6.051,15.271-42.064,15.271-42.064,15.271c26.219-5.474,23.914-22.185,23.914-22.185c-0.576-17.574-23.625-20.455-23.625-20.455
	C214.792,78.158,224.203,85.361,224.203,85.361z"/>
</svg>
